<svg xmlns="http://www.w3.org/2000/svg" xmlns:xlink="http://www.w3.org/1999/xlink" width="87.767" height="54.261" viewBox="0 0 87.767 54.261">
  <defs>
    <clipPath id="clip-path">
      <path id="Path_301" data-name="Path 301" d="M105.694,20.993,93.529,14.105,81.365,21.085v2.5l-2.372,1.422v2.235h0l2.425-1.391V28.6l3.657,2.076V23.837l-1.216.707v-2.57l3.649-2.121V34.481l-2.433-1.391-6.082-3.421V31.66l14.575,8.287,14.582-8.074v-2.2l-6.082,3.421-2.448,1.391V19.952l3.649,2.129v2.425l-1.216-.707v6.843l3.642-2.045V25.844l2.425,1.4h0V24.9l-2.433-1.422ZM98.4,21.67V35.135l-4.858,2.737-4.858-2.737V19.169l2.471-1.414h0l2.425-1.414,4.858,2.836Zm-4.858-2.828,2.433,1.414V34.07l-2.433,1.368L91.157,34.07V20.256Zm0-7.268-6.082,3.49V7.772H99.574V15ZM79.4,19.7l-.433.251V4.29l.433.243,5.672,3.239v8.69ZM108.127,4.4V19.838l-2.433-1.376h0l-3.672-2V7.932l3.672-2.159h0Z" transform="translate(-78.97 -4.29)" fill="none"/>
    </clipPath>
  </defs>
  <g id="JOL_logo-05" transform="translate(-4.56 -0.55)">
    <g id="Group_316" data-name="Group 316" transform="translate(62.874 4.407)" clip-path="url(#clip-path)">
      <rect id="Rectangle_97" data-name="Rectangle 97" width="94.518" height="61.948" transform="translate(-35.764 -15.168)" fill="#fff"/>
    </g>
    <path id="Path_302" data-name="Path 302" d="M25.939,27.81V61.262H4.56V52.481l7.177-7.04V54.1h7.337V42.4L23.8,37.716l-4.683.076-.046.137V27.81Z" transform="translate(0 -6.535)" fill="#fff"/>
    <path id="Path_303" data-name="Path 303" d="M35.77,27.66H57.294V61.31H35.77V42.242L40.408,37.6l-4.638.1ZM50.39,54.141V34.829H43.015V54.141Z" transform="translate(-7.482 -6.499)" fill="#fff"/>
    <path id="Path_304" data-name="Path 304" d="M88.595,52.377V61.12H67.17V42.113l4.562-4.562-4.562.068V27.66h6.843V54h7.337V45.321Z" transform="translate(-15.009 -6.499)" fill="#fff"/>
    <path id="Path_305" data-name="Path 305" d="M27.252,2.674c0,.654-.319.988-1.156.988H24.873v.9H23.93V1.64H26.1C26.933,1.64,27.252,1.975,27.252,2.674Zm-1.042,0c0-.2-.091-.3-.342-.3h-1v.6h1C26.12,2.963,26.211,2.856,26.211,2.674Z" transform="translate(-4.643 -0.261)" fill="#fff"/>
    <path id="Path_306" data-name="Path 306" d="M30.562,4.111H29.041l-.2.456h-1L29.2,1.64h1.247l1.315,2.927h-1Zm-.319-.677-.433-1h0l-.441,1Z" transform="translate(-5.581 -0.261)" fill="#fff"/>
    <path id="Path_307" data-name="Path 307" d="M36.767,4.567H35.695l-.563-.943h-.89v.943H33.3V1.64h2.235c.836,0,1.156.342,1.156.966a.76.76,0,0,1-.631.829h0ZM35.642,2.674c0-.182-.091-.281-.327-.281H34.243v.563h1.11C35.55,2.955,35.642,2.864,35.642,2.674Z" transform="translate(-6.89 -0.261)" fill="#fff"/>
    <path id="Path_308" data-name="Path 308" d="M41.163,2.39h-1.1V4.565h-.943V2.39H38V1.63h3.155Z" transform="translate(-8.016 -0.259)" fill="#fff"/>
    <path id="Path_309" data-name="Path 309" d="M44.612,3.594v.973h-.95V3.594L42.27,1.64h1.118l.76,1.148.76-1.148h1.118Z" transform="translate(-9.04 -0.261)" fill="#fff"/>
    <path id="Path_310" data-name="Path 310" d="M50.084,4.557l-.433-1.794h0l-.426,1.794h-1.2L47.18,1.63h1.034l.441,1.794h0L49.1,1.6H50.16L50.6,3.425h0L51.042,1.6h1.034L51.24,4.557Z" transform="translate(-10.217 -0.252)" fill="#fff"/>
    <path id="Path_311" data-name="Path 311" d="M55.882,4.111H54.361l-.205.456h-1L54.513,1.64H55.76l1.346,2.927H56.079Zm-.3-.677-.441-1h0l-.456,1Z" transform="translate(-11.65 -0.261)" fill="#fff"/>
    <path id="Path_312" data-name="Path 312" d="M61.911,4.55h-.661V4.231a1.521,1.521,0,0,1-1.133.418c-1.209,0-1.946-.494-1.946-1.559s.76-1.521,1.916-1.521,1.756.411,1.817,1.087h-1.11c0-.068-.106-.35-.707-.35s-.882.3-.882.76a.8.8,0,0,0,.912.821c.631,0,.76-.281.76-.388h-.684V2.893h1.726Z" transform="translate(-12.851 -0.245)" fill="#fff"/>
    <path id="Path_313" data-name="Path 313" d="M67.357,3.091c0,1.064-.76,1.559-1.924,1.559S63.51,4.178,63.51,3.091s.76-1.521,1.924-1.521S67.357,2.019,67.357,3.091Zm-1.034,0c0-.494-.281-.76-.89-.76s-.89.3-.89.76.289.76.89.76S66.323,3.585,66.323,3.091Z" transform="translate(-14.131 -0.245)" fill="#fff"/>
    <path id="Path_314" data-name="Path 314" d="M72.4,1.64V4.567h-1.08l-1.384-1.8h0v1.8H69V1.64h1.11l1.369,1.794h0V1.64Z" transform="translate(-15.447 -0.261)" fill="#fff"/>
    <path id="Path_315" data-name="Path 315" d="M42.723,8.16h-1.11v2.174h-.958V8.16H39.56V7.4h3.163Z" transform="translate(-8.39 -1.642)" fill="#fff"/>
    <path id="Path_316" data-name="Path 316" d="M47.667,8.861c0,1.064-.76,1.559-1.924,1.559S43.82,9.925,43.82,8.861s.76-1.521,1.924-1.521S47.667,7.8,47.667,8.861Zm-1.034,0c0-.494-.281-.8-.89-.8s-.89.3-.89.8.289.8.89.8S46.633,9.362,46.633,8.861Z" transform="translate(-9.411 -1.628)" fill="#fff"/>
    <path id="Path_317" data-name="Path 317" d="M55.321,10.337h-.943V8.3h0l-.76,2.038h-.76L52.1,8.269h0v2.068H51.17V7.41h1.521l.563,1.711h0l.555-1.711h1.521Z" transform="translate(-11.173 -1.644)" fill="#fff"/>
    <path id="Path_318" data-name="Path 318" d="M60.56,7.41V9.067c0,1.08-.661,1.361-1.68,1.361s-1.68-.289-1.68-1.361V7.41h.943V9.067c0,.479.289.608.76.608s.76-.129.76-.608V7.41Z" transform="translate(-12.619 -1.644)" fill="#fff"/>
    <path id="Path_319" data-name="Path 319" d="M63.673,7.941c-.388,0-.532.1-.532.243s.114.2.335.22l1.019.114c.639.076.988.335.988.9,0,.813-.677.988-1.764.988S62,10.222,62,9.355h1.064c0,.342.3.411.692.411s.608-.084.608-.266-.152-.228-.4-.258l-.912-.114c-.631-.076-1-.312-1-.874,0-.76.7-.943,1.65-.943s1.642.2,1.68.973h-1.1C64.281,8.025,64.045,7.941,63.673,7.941Z" transform="translate(-13.769 -1.62)" fill="#fff"/>
    <path id="Path_320" data-name="Path 320" d="M67,10.337V7.41h.943v2.927Z" transform="translate(-14.968 -1.644)" fill="#fff"/>
    <path id="Path_321" data-name="Path 321" d="M70.58,8.062a.8.8,0,1,0,0,1.6c.555,0,.707-.266.76-.54h1.125c0,.844-.715,1.3-1.847,1.3S68.74,9.925,68.74,8.861,69.5,7.34,70.618,7.34s1.817.449,1.84,1.232H71.31C71.295,8.344,71.135,8.062,70.58,8.062Z" transform="translate(-15.385 -1.628)" fill="#fff"/>
    <path id="Path_322" data-name="Path 322" d="M40.233,13.92v.525h1.916v.692H40.233v.95H39.29v-2.9h2.95v.76Z" transform="translate(-8.325 -3.03)" fill="#fff"/>
    <path id="Path_323" data-name="Path 323" d="M44.573,14.3h1.916v.646H44.573v.471h2.045v.669H43.63v-2.9h2.942v.7h-2Z" transform="translate(-9.366 -3.03)" fill="#fff"/>
    <path id="Path_324" data-name="Path 324" d="M49.528,13.718c-.388,0-.532.1-.532.243s.106.2.335.22l1.019.114c.639.076.988.335.988.9,0,.814-.677.988-1.771.988S47.878,16,47.84,15.117h1.08c0,.35.289.411.684.411s.639-.084.639-.22-.16-.236-.4-.266l-.912-.114c-.631-.076-1-.3-1-.874,0-.76.7-.943,1.65-.943s1.642.2,1.68.973h-1.1C50.136,13.787,49.9,13.718,49.528,13.718Z" transform="translate(-10.375 -3.011)" fill="#fff"/>
    <path id="Path_325" data-name="Path 325" d="M55.635,13.93h-1.1v2.152H53.59V13.93H52.48v-.76h3.155Z" transform="translate(-11.487 -3.025)" fill="#fff"/>
    <path id="Path_326" data-name="Path 326" d="M61.292,15.653H59.771l-.205.456h-1l1.353-2.919h1.254l1.338,2.9H61.489Zm-.3-.677-.441-1h0l-.441,1Z" transform="translate(-12.947 -3.03)" fill="#fff"/>
    <path id="Path_327" data-name="Path 327" d="M67.406,13.19v2.9h-1.08l-1.384-1.794h0v1.794H64v-2.9h1.11l1.353,1.756h0V13.19Z" transform="translate(-14.249 -3.03)" fill="#fff"/>
    <path id="Path_328" data-name="Path 328" d="M72.49,14.65c0,1.064-.578,1.46-1.657,1.46H69V13.19h1.8C71.912,13.19,72.49,13.585,72.49,14.65Zm-2.517-.722v1.445h.661c.532,0,.821-.2.821-.722s-.289-.722-.821-.722Z" transform="translate(-15.447 -3.03)" fill="#fff"/>
    <path id="Path_329" data-name="Path 329" d="M51.568,19.476c-.4,0-.54.1-.54.243s.114.2.335.22l1.019.114c.646.076,1,.342,1,.9,0,.814-.684.988-1.771.988s-1.7-.19-1.726-1.064h1.08c0,.342.289.4.684.4s.608-.084.608-.258-.152-.236-.388-.266l-.92-.114c-.623-.076-1-.3-1-.874,0-.76.692-.943,1.65-.943s1.642.2,1.673.973h-1.08C52.176,19.56,51.933,19.476,51.568,19.476Z" transform="translate(-10.864 -4.382)" fill="#fff"/>
    <path id="Path_330" data-name="Path 330" d="M58.222,19.966c0,.654-.319.988-1.156.988H55.843V21.9H54.9V19h2.167C57.9,19,58.222,19.3,58.222,19.966Zm-1.042,0c0-.2-.091-.3-.342-.3h-1v.593h1c.251.023.342-.076.342-.274Z" transform="translate(-12.067 -4.423)" fill="#fff"/>
    <path id="Path_331" data-name="Path 331" d="M63.427,20.389c0,1.064-.76,1.559-1.924,1.559s-1.924-.494-1.924-1.559.76-1.559,1.924-1.559S63.427,19.324,63.427,20.389Zm-1.034,0c0-.494-.289-.8-.89-.8s-.89.3-.89.8.289.8.89.8S62.393,20.883,62.393,20.389Z" transform="translate(-13.189 -4.382)" fill="#fff"/>
    <path id="Path_332" data-name="Path 332" d="M67.905,19.715H66.8V21.9H65.86V19.715H64.75V19h3.155Z" transform="translate(-14.429 -4.423)" fill="#fff"/>
    <path id="Path_333" data-name="Path 333" d="M70.7,19.476c-.388,0-.532.1-.532.243s.114.2.335.22l1.019.114c.639.076.988.342.988.9,0,.814-.677.988-1.764.988s-1.7-.19-1.733-1.064h1.08c0,.342.3.4.692.4s.608-.084.608-.258-.152-.236-.4-.266l-.912-.114c-.631-.076-1-.3-1-.874,0-.76.7-.943,1.65-.943s1.642.2,1.68.973h-1.08C71.283,19.56,71.07,19.476,70.7,19.476Z" transform="translate(-15.45 -4.382)" fill="#fff"/>
    <path id="Path_334" data-name="Path 334" d="M99.827,54.211l9.207-9.222.418-.411V.55H76V54.621H99.424Zm-23.424,0V.991h32.631v43.42l-9.8,9.8Z" transform="translate(-17.125 0)" fill="#fff"/>
  </g>
</svg>
