<svg xmlns="http://www.w3.org/2000/svg" xmlns:xlink="http://www.w3.org/1999/xlink" width="431" height="707.899" viewBox="0 0 431 707.899">
  <defs>
    <clipPath id="clip-path">
      <path id="Intersection_2" data-name="Intersection 2" d="M498.061,701.4c-10.019-11.057-17.849-12.277-22.065,8.005q-4-1.246-7.995-2.353V21.389c5.089,1.583,10.148,4.436,15.182,4.236C539.8,23.363,596.391,20.345,653,17.922c19.173-.82,37.506.176,55.372,16.249,8.149,7.322,22,2.165,33.137.558,23.241-3.369,46.384-8.258,69.585-12.289Q854.542,14.894,898,7.519V705.563c-40.453,2.151-80.97,1.909-121.455,2.619-52.759.922-105.562.128-158.273,2.984-34.627,1.879-69.271.887-103.889,3.155-.113,0-.231,0-.346,0C508.792,714.325,502.924,706.767,498.061,701.4Z" fill="#1e1e1e" stroke="rgba(0,0,0,0)" stroke-width="1"/>
    </clipPath>
    <clipPath id="clip-path-2">
      <rect id="Rectangle_322" data-name="Rectangle 322" width="595.065" height="615.885" fill="#2a2828"/>
    </clipPath>
    <clipPath id="clip-path-3">
      <rect id="Rectangle_327" data-name="Rectangle 327" width="542.825" height="615.885" fill="#e8137f"/>
    </clipPath>
  </defs>
  <g id="Group_634" data-name="Group 634" transform="translate(-467.501 -3245.391)">
    <path id="Intersection_1" data-name="Intersection 1" d="M498.061,701.4c-10.019-11.057-17.849-12.277-22.065,8.005q-4-1.246-7.995-2.353V21.389c5.089,1.583,10.148,4.436,15.182,4.236C539.8,23.363,596.391,20.345,653,17.922c19.173-.82,37.506.176,55.372,16.249,8.149,7.322,22,2.165,33.137.558,23.241-3.369,46.384-8.258,69.585-12.289Q854.542,14.894,898,7.519V705.563c-40.453,2.151-80.97,1.909-121.455,2.619-52.759.922-105.562.128-158.273,2.984-34.627,1.879-69.271.887-103.889,3.155-.113,0-.231,0-.346,0C508.792,714.325,502.924,706.767,498.061,701.4Z" transform="translate(0 3238.465)" fill="#1e1e1e" stroke="rgba(0,0,0,0)" stroke-width="1"/>
    <g id="Mask_Group_133" data-name="Mask Group 133" transform="translate(0 3238.465)" clip-path="url(#clip-path)">
      <g id="Group_579" data-name="Group 579" transform="translate(-54.083 -94.586)">
        <g id="Group_578" data-name="Group 578" transform="translate(337.02 627.606)" clip-path="url(#clip-path-2)">
          <path id="Path_1611" data-name="Path 1611" d="M306.079,434.718c4.7-5.553,9.579-10.97,14.086-16.682,23.457-29.721,48.545-58.017,74.3-85.74,34.434-37.06,69.575-73.426,106.072-108.461,11.3-10.85,23.033-21.249,34.682-31.726,2.624-2.358,5.731-4.177,8.608-6.255,2.7-1.95,5.023-1.293,7.229.928,4.007,4.036,5.246,8.9,4.431,14.387-.268,1.809-.76,3.586-1.335,6.217,1.879-.458,3.347-.435,4.313-1.122,2.374-1.686,4.461-3.774,6.769-5.563,4.275-3.311,8.952-3.258,13.238.02,3.648,2.793,4.865,6.884,2.13,11.773a102.365,102.365,0,0,1-10.754,15.328c-9.359,11.24-19.069,22.182-28.585,33.291-1.761,2.058-3.2,4.393-4.908,6.5q-9.066,11.168-18.233,22.258c-7.607,9.166-15.569,18.051-22.87,27.451-21.277,27.393-42.307,54.975-63.4,82.514a14.734,14.734,0,0,0-3.053,6.927,19.726,19.726,0,0,0,3.084-2.307c15-16.584,30.018-33.14,44.894-49.832,21.693-24.339,43.15-48.888,64.981-73.1,5.568-6.175,12.129-11.456,18.311-17.062a15.878,15.878,0,0,1,4.21-2.675c3.013-1.334,5.447-.33,6.308,2.906,1.819,6.844,2.439,13.768-2.291,19.787-4.509,5.739-9.281,11.285-14.123,16.752-17.337,19.57-33.5,40.069-48.826,61.245q-4.588,6.344-9.045,12.787a3.427,3.427,0,0,0-.246,3.331c2.815-2.619,5.763-5.11,8.423-7.878,15.789-16.42,31.383-33.027,47.318-49.3,6.418-6.557,13.378-12.618,20.393-18.544a59.823,59.823,0,0,1,11.981-7.9c6.293-3.11,11.6.566,10.806,7.677a27.02,27.02,0,0,1-4.238,11.579q-9.386,14.059-19.8,27.423c-12.841,16.486-26.014,32.712-39.005,49.077-1.222,1.54-2.145,3.316-3.816,5.936,4.431.465,7.68.949,10.944,1.1,3.229.156,4.988,1.739,5.638,4.8.258,1.223.65,2.423.848,3.653a25.853,25.853,0,0,0,6.255,13.406c5.389,6.109,5.658,8.55.6,14.792-10,12.334-20.057,24.653-30.753,36.371-11.825,12.956-24.348,25.277-36.675,37.77a46.611,46.611,0,0,1-7.793,6.27c-7.637,4.962-13.544,2.788-16.414-5.82-.258-.777-.5-1.56-.831-2.6-3.809.211-6.2,2.617-8.335,5.047-9.231,10.52-18.318,21.163-27.456,31.764-6.273,7.279-12.4,14.694-18.883,21.775a37.828,37.828,0,0,1-8.817,6.942c-5.387,3.14-9.74.8-9.848-5.41-.073-4.333.83-8.7,1.508-13.021.414-2.654,1.224-5.249,1.064-8.583-2.346,2.315-4.852,4.489-7.01,6.97-9.6,11.038-19.066,22.195-28.653,33.248-5.339,6.154-10.636,12.369-16.306,18.212a82.369,82.369,0,0,1-12.329,10.58c-5.317,3.643-8.837,2.144-11.035-3.913-1.064-2.934-2.03-5.9-3.066-8.849-.048-.136-.314-.194-.888-.521a36.673,36.673,0,0,1-2.537,3.133c-2.481,2.5-4.722,5.442-7.65,7.249-6.258,3.86-13.2.148-13.388-7.224a31.278,31.278,0,0,1,2.047-11.62c4.135-10.93,8.257-21.916,13.28-32.451a565.314,565.314,0,0,1,57.3-95.53c20.017-26.779,39.3-54.107,58.947-81.163,4.91-6.763,10-13.4,14.951-20.127a30.809,30.809,0,0,0,1.947-3.475l-.976-.83a77.094,77.094,0,0,0-6,5.918c-21.728,26.492-43.845,52.685-64.931,79.684-17.355,22.222-33.736,45.225-50.023,68.255-9.158,12.948-17.212,26.679-25.843,40.007-4.313,6.66-8.46,13.474-13.343,19.7-3.023,3.855-7.073,7.03-11.067,9.961-3.126,2.295-6.845,1.683-10.041-.41-3.279-2.146-3.6-5.588-2.835-8.963a44.111,44.111,0,0,1,3.427-10.691c6.769-12.953,13.865-25.732,20.845-38.575,3.395-6.24,6.87-12.437,10.164-18.73,1.2-2.292,1.977-4.806,2.948-7.216q-.689-.445-1.382-.891c-1.867,2.041-4.019,3.887-5.557,6.152-20.787,30.609-40.624,61.8-58.079,94.471a51.409,51.409,0,0,1-5.891,8.832,8.315,8.315,0,0,1-10.169,2.546c-3.565-1.437-5.174-3.241-4.928-7.083a32.006,32.006,0,0,1,1.914-9.773c5.043-12.593,10.036-25.234,15.739-37.536,11.331-24.452,23.015-48.74,34.743-73.006,20.536-42.49,45.865-82.034,74.084-119.771,8.511-11.378,17.219-22.608,25.715-34,2.805-3.759,5.748-7.513,7.447-12.779-3.4.543-4.486,3.024-5.959,4.677-18.356,20.59-36.23,41.624-54.98,61.847-30.191,32.559-56.8,67.971-83.8,103.1-13.5,17.56-27.178,34.982-40.473,52.69-5.256,7-9.65,14.649-14.527,21.938-2.436,3.638-4.928,7.259-7.673,10.663-2.446,3.032-5.816,3.842-9.62,2.883-4.067-1.024-5.982-2.783-5.766-6.942.2-3.9.632-8.094,2.253-11.552,7-14.928,14.354-29.7,21.824-44.4,5.389-10.608,11.19-21.01,16.735-31.54a9.246,9.246,0,0,0,1.026-5.5,27.65,27.65,0,0,0-2.936,2.851c-9.973,12.885-19.836,25.856-29.86,38.7-6.812,8.723-13.785,17.324-20.8,25.886a24.811,24.811,0,0,1-5.1,4.594c-3.731,2.569-6.935,2.348-10.347-.355-2.918-2.312-3.688-4.728-2.238-8.968a81.421,81.421,0,0,1,4.193-9.78c10.982-22.137,24.318-42.882,37.721-63.58,20.218-31.218,39.826-62.866,61.015-93.414,28.34-40.862,57.964-80.833,86.983-121.227,3.774-5.254,7.279-10.706,10.8-16.141.813-1.258,1.167-2.813,2.3-5.646-2.426,1.245-3.605,1.56-4.378,2.3-3.013,2.891-6,5.825-8.817,8.91-26.465,29.041-53.36,57.705-79.175,87.312-19.35,22.2-37.267,45.645-55.876,68.489-12.673,15.552-25.276,31.17-38.223,46.493a280.3,280.3,0,0,0-26.691,37.1,64.667,64.667,0,0,1-5.5,8.369,19.55,19.55,0,0,1-6.147,5.125c-5.5,2.67-11.742-1.084-11.328-7.131.334-4.891,1.29-10.148,3.528-14.425,6.576-12.568,13.358-25.1,21.083-36.977,22.009-33.835,46.53-65.883,70.97-97.971q34.568-45.392,69.292-90.664c6.225-8.122,12.681-16.066,19.046-24.079,1.064-1.339,2.286-2.6.163-4.62a11.911,11.911,0,0,0-2.735,1.807Q240.858,233.692,225.1,251.94c-19.307,22.253-38.77,44.375-57.876,66.8-12.056,14.148-24.2,28.291-35.217,43.242-20.572,27.917-40.318,56.444-60.48,84.663-5.46,7.642-11.045,15.2-16.856,22.577a13.051,13.051,0,0,1-12.1,5.259c-5.585-.574-7.939-3.419-6.24-8.887a54.541,54.541,0,0,1,5.409-12.608c10.588-17.032,21.272-34.011,32.321-50.745,22.825-34.569,48.552-66.995,73.976-99.644,8.207-10.538,15.777-21.576,23.618-32.4a2.477,2.477,0,0,0,.151-2.275,32.333,32.333,0,0,0-3.879,3.268q-32.4,37.029-64.7,74.151c-9.715,11.212-19.525,22.376-28.6,34.1-13.817,17.834-26.975,36.177-40.556,54.2-2.479,3.289-5.239,6.645-8.578,8.937-5.884,4.041-11.632,1.288-13.185-5.707a19.825,19.825,0,0,1,1.912-13.408c2.905-5.769,5.854-11.622,9.615-16.835,11.123-15.421,22.7-30.513,34.015-45.794,11.815-15.952,23.472-32.02,35.32-47.945,8.6-11.564,17.548-22.874,26.094-34.481q26.571-36.1,52.86-72.4a21.3,21.3,0,0,0,3.7-7.642,27.445,27.445,0,0,0-3.329,2.667c-19.071,20.783-38.644,41.139-57.025,62.516-28.61,33.271-56.37,67.271-84.595,100.877a140.139,140.139,0,0,1-13.024,13.512,16.425,16.425,0,0,1-7.7,3.731c-6.285,1.178-9.3-1.927-8.029-8.147a38.884,38.884,0,0,1,3.613-10.633c5.866-10.829,11.67-21.729,18.271-32.111C42.1,302.326,62.7,275.688,84.551,250.086c26.182-30.674,53.043-60.772,79.607-91.124q14.031-16.037,28.023-32.106A11.68,11.68,0,0,0,195,121.308c-3.39,2.934-6.922,5.714-10.147,8.819-39.194,37.712-75.893,77.759-111.095,119.2q-22.122,26.042-44.124,52.185c-3.493,4.154-6.564,8.663-10.059,12.815a33.088,33.088,0,0,1-6.4,5.923,7.361,7.361,0,0,1-8.8-.171c-2.885-2.008-5.128-4.63-4.14-8.411a35.234,35.234,0,0,1,3.407-8.686c4.918-8.494,9.893-16.971,15.24-25.2,21.538-33.13,43.863-65.714,68.662-96.514,13.629-16.929,27.707-33.495,41.509-50.285,3.249-3.953,6.456-7.991,8.553-12.684l-1.024-1.089a47.183,47.183,0,0,0-4.657,3.429c-14.051,13.117-28.124,26.208-42.041,39.468-12.708,12.108-25.2,24.442-37.856,36.61-2.532,2.433-5.344,4.572-8.325,7.1a66.195,66.195,0,0,1-5.545-4.615c-2.183-2.259-3.139-4.979-1.465-7.994,2.02-3.641,3.776-7.511,6.313-10.761a204.3,204.3,0,0,1,14.322-16.6c32.331-33.321,66.417-64.793,101.561-95.1,18.665-16.1,37.874-31.56,56.985-47.13,4.024-3.276,8.641-5.842,13.087-8.565A17.409,17.409,0,0,1,234.172,11c3.681-.828,5.5.239,6.694,3.8,1.546,4.592.828,9.222-.9,13.492a50.866,50.866,0,0,1-6.288,11.479c-5.154,6.829-10.693,13.378-16.3,19.85-8.2,9.481-16.642,18.763-24.9,28.2-1.9,2.171-3.478,4.63-5.2,6.955l.841.966c2.928-2.315,5.889-4.592,8.779-6.952,2.913-2.378,5.773-4.821,8.629-7.267,20.3-17.4,40.41-35.045,60.982-52.119,9.627-7.991,20.143-14.908,30.279-22.275a33.727,33.727,0,0,1,4.27-2.619c4.579-2.383,7.708-1.449,9.5,3.256,2.9,7.6,2.067,14.767-3.47,21.047-2.205,2.5-4.564,4.871-6.714,7.418-.708.838-.984,2.038-.647,4.013,2.988-1.653,6.17-3.032,8.925-5,10.528-7.546,20.878-15.341,31.378-22.922,4.91-3.545,10.019-6.809,15.032-10.21,2.712-1.842,5.389-3.2,8.581-.828,3.621,2.69,5.327,6.273,4.278,10.271a18.441,18.441,0,0,1-2.416,5.729c-3.666,5.324-7.173,10.84-11.459,15.64-13.361,14.961-27.015,29.66-40.621,44.4q-38.049,41.237-76.147,82.431a89.9,89.9,0,0,0-9.13,11.964c2.665-.164,4.243-2.061,5.851-3.618Q252.7,150,271.236,131.747q46.852-46.242,93.657-92.533a80.928,80.928,0,0,1,11.381-9.8A38.209,38.209,0,0,1,388.1,24.044c5.558-1.381,8.345,1.185,8.443,6.9a72.33,72.33,0,0,1-.743,8.089c-.133,1.386-.246,2.775-.449,5.093,2.6-.652,4.546-1.049,6.441-1.63,7.886-2.421,14.51,3.515,12.365,11.474a27.57,27.57,0,0,1-4.571,8.8c-8.29,11.285-16.577,22.582-25.268,33.553-19.982,25.224-40.185,50.277-60.337,75.366-4.313,5.372-8.857,10.555-13.17,15.925a15.654,15.654,0,0,0-3.274,7.007c2.291-2.136,4.7-4.162,6.855-6.429,17.711-18.629,35.327-37.352,53.071-55.951q32.671-34.251,65.554-68.3a72.112,72.112,0,0,1,10.761-8.522,13.9,13.9,0,0,1,5.788-2.184c6.518-.949,10.764,3.316,9.248,9.737a43.059,43.059,0,0,1-4.913,12.12,223.3,223.3,0,0,1-14.555,21.908q-21.528,27.729-43.732,54.925c-24.348,29.791-47.155,60.742-69.54,92.008-16.788,23.448-33.31,47.082-49.9,70.666a11.74,11.74,0,0,0-2.263,6.436c1.6-1.515,3.3-2.941,4.795-4.557,15.762-17.022,31.273-34.28,47.275-51.07q52.554-55.141,105.537-109.87c15.112-15.62,30.54-30.943,46.113-46.1A210.933,210.933,0,0,1,496.83,93.414a18.635,18.635,0,0,1,8.054-3.06c3.55-.6,5.349.906,6.669,4.308a11.528,11.528,0,0,1-1.039,10.817,61.417,61.417,0,0,1-6.817,8.94c-10.468,11.1-21.41,21.76-31.559,33.135a300.607,300.607,0,0,0-20.905,26.565c-11.88,16.778-25.364,32.186-39.5,47-30.59,32.048-61.509,63.782-92.3,95.636-18.6,19.238-36.747,38.9-53.585,59.7-8.531,10.533-15.97,21.953-23.833,33.022a11.939,11.939,0,0,0-2.022,5.613,34.854,34.854,0,0,0,3.942-3.281c13.152-14.586,26.187-29.28,39.384-43.829q37.067-40.863,74.272-81.6c34.221-37.594,70.5-73.132,108.272-107.1,17.385-15.63,35.816-30.093,53.816-45.034a34.665,34.665,0,0,1,5.771-3.749c3.417-1.829,5.181-1.432,7.57,1.593a11.394,11.394,0,0,1,1.345,12.963,79.974,79.974,0,0,1-8.752,13.663c-9.273,11.31-18.835,22.386-28.447,33.412C467.224,226.462,436.925,260.5,407.3,295.112c-30.851,36.051-60.546,73.056-87.051,112.494-4.541,6.758-8.706,13.771-12.952,20.723a53.2,53.2,0,0,0-2.562,5.465q.67.464,1.34.923M327.117,573.86c9.828-13.149,22.4-24.4,28.312-40.319-11.818,11.73-20.9,25.418-28.312,40.319" transform="translate(0.001 0)" fill="#2a2828"/>
        </g>
        <g id="Group_584" data-name="Group 584" transform="translate(752.084 -386)" clip-path="url(#clip-path-3)">
          <path id="Path_1614" data-name="Path 1614" d="M279.209,434.718c4.291-5.553,8.739-10.97,12.849-16.682,21.4-29.721,44.283-58.017,67.78-85.74,31.411-37.06,63.468-73.426,96.76-108.461,10.309-10.85,21.011-21.249,31.638-31.726a92.756,92.756,0,0,1,7.853-6.255c2.467-1.95,4.582-1.293,6.594.928,3.655,4.036,4.786,8.9,4.042,14.387-.245,1.809-.693,3.586-1.218,6.217,1.714-.458,3.053-.435,3.934-1.122,2.165-1.686,4.069-3.774,6.175-5.563,3.9-3.311,8.166-3.258,12.076.02,3.328,2.793,4.438,6.884,1.943,11.773a103.007,103.007,0,0,1-9.81,15.328c-8.537,11.24-17.395,22.182-26.076,33.291-1.607,2.058-2.916,4.393-4.477,6.5Q481,278.781,472.64,289.871c-6.94,9.166-14.2,18.051-20.862,27.451-19.409,27.393-38.593,54.975-57.83,82.514a15.451,15.451,0,0,0-2.785,6.927,18.235,18.235,0,0,0,2.813-2.307c13.68-16.584,27.383-33.14,40.953-49.832,19.789-24.339,39.362-48.888,59.277-73.1,5.079-6.175,11.064-11.456,16.7-17.062a14.384,14.384,0,0,1,3.841-2.675c2.749-1.334,4.969-.33,5.754,2.906,1.659,6.844,2.225,13.768-2.09,19.787-4.113,5.739-8.466,11.285-12.884,16.752-15.815,19.57-30.562,40.069-44.539,61.245q-4.185,6.344-8.251,12.787a3.707,3.707,0,0,0-.224,3.331c2.568-2.619,5.257-5.11,7.683-7.878,14.4-16.42,28.628-33.027,43.164-49.3,5.855-6.557,12.2-12.618,18.6-18.544a54.43,54.43,0,0,1,10.929-7.9c5.74-3.11,10.586.566,9.858,7.677a28.692,28.692,0,0,1-3.866,11.579q-8.562,14.059-18.063,27.423c-11.714,16.486-23.73,32.712-35.581,49.077-1.115,1.54-1.957,3.316-3.481,5.936,4.042.465,7.006.949,9.984,1.1,2.946.156,4.55,1.739,5.143,4.8.236,1.223.593,2.423.774,3.653a27.008,27.008,0,0,0,5.706,13.406c4.916,6.109,5.161,8.55.545,14.792-9.118,12.334-18.3,24.653-28.053,36.371-10.787,12.956-22.21,25.277-33.455,37.77a43.491,43.491,0,0,1-7.109,6.27c-6.967,4.962-12.355,2.788-14.973-5.82-.236-.777-.453-1.56-.758-2.6-3.474.211-5.658,2.617-7.6,5.047-8.42,10.52-16.71,21.163-25.046,31.764-5.722,7.279-11.309,14.694-17.225,21.775a35.2,35.2,0,0,1-8.043,6.942c-4.914,3.14-8.885.8-8.983-5.41-.066-4.333.758-8.7,1.376-13.021.378-2.654,1.117-5.249.97-8.583-2.14,2.315-4.426,4.489-6.395,6.97-8.759,11.038-17.392,22.195-26.138,33.248-4.871,6.154-9.7,12.369-14.875,18.212a77.526,77.526,0,0,1-11.247,10.58c-4.85,3.643-8.061,2.144-10.066-3.913-.97-2.934-1.852-5.9-2.8-8.849-.043-.136-.286-.194-.81-.521a36.265,36.265,0,0,1-2.314,3.133c-2.264,2.5-4.307,5.442-6.978,7.249-5.708,3.86-12.037.148-12.213-7.224a33.981,33.981,0,0,1,1.868-11.62c3.772-10.93,7.532-21.916,12.114-32.451a578.767,578.767,0,0,1,52.266-95.53c18.26-26.779,35.849-54.107,53.772-81.163,4.479-6.763,9.118-13.4,13.639-20.127a31.757,31.757,0,0,0,1.776-3.475l-.89-.83a73.962,73.962,0,0,0-5.47,5.918c-19.821,26.492-40,52.685-59.231,79.684-15.831,22.222-30.775,45.225-45.631,68.255-8.354,12.948-15.7,26.679-23.574,40.007-3.934,6.66-7.718,13.474-12.172,19.7a52.646,52.646,0,0,1-10.1,9.961c-2.852,2.295-6.244,1.683-9.16-.41-2.991-2.146-3.28-5.588-2.586-8.963a47.2,47.2,0,0,1,3.126-10.691c6.175-12.953,12.648-25.732,19.015-38.575,3.1-6.24,6.267-12.437,9.272-18.73,1.094-2.292,1.8-4.806,2.689-7.216q-.628-.445-1.261-.891a56.734,56.734,0,0,0-5.07,6.152c-18.962,30.609-37.057,61.8-52.98,94.471a52.031,52.031,0,0,1-5.374,8.832c-2.4,3.135-5.594,4.172-9.276,2.546-3.252-1.437-4.719-3.241-4.5-7.083a34.727,34.727,0,0,1,1.746-9.773c4.6-12.593,9.155-25.234,14.357-37.536,10.336-24.452,20.995-48.74,31.693-73.006,18.734-42.49,41.839-82.034,67.581-119.771,7.764-11.378,15.708-22.608,23.458-34,2.559-3.759,5.244-7.513,6.793-12.779-3.1.543-4.092,3.024-5.436,4.677-16.745,20.59-33.05,41.624-50.154,61.847-27.541,32.559-51.818,67.971-76.445,103.1-12.311,17.56-24.792,34.982-36.92,52.69-4.795,7-8.8,14.649-13.252,21.938-2.222,3.638-4.5,7.259-7,10.663-2.232,3.032-5.305,3.842-8.775,2.883-3.71-1.024-5.456-2.783-5.26-6.942.183-3.9.577-8.094,2.055-11.552,6.388-14.928,13.094-29.7,19.908-44.4,4.916-10.608,10.208-21.01,15.266-31.54a10.008,10.008,0,0,0,.936-5.5,26.47,26.47,0,0,0-2.678,2.851c-9.1,12.885-18.1,25.856-27.239,38.7-6.214,8.723-12.575,17.324-18.972,25.886a23.508,23.508,0,0,1-4.653,4.594c-3.4,2.569-6.326,2.348-9.439-.355-2.662-2.312-3.364-4.728-2.042-8.968a85.78,85.78,0,0,1,3.825-9.78c10.018-22.137,22.183-42.882,34.409-63.58,18.443-31.218,36.33-62.866,55.658-93.414,25.852-40.862,52.875-80.833,79.347-121.227,3.442-5.254,6.64-10.706,9.849-16.141.742-1.258,1.064-2.813,2.094-5.646-2.213,1.245-3.289,1.56-3.994,2.3-2.749,2.891-5.477,5.825-8.043,8.91-24.142,29.041-48.675,57.705-72.224,87.312-17.651,22.2-34,45.645-50.971,68.489C137.367,408.059,125.87,423.677,114.06,439a281.236,281.236,0,0,0-24.348,37.1,65.559,65.559,0,0,1-5.022,8.369,18.33,18.33,0,0,1-5.607,5.125c-5.019,2.67-10.711-1.084-10.334-7.131.3-4.891,1.176-10.148,3.218-14.425,6-12.568,12.185-25.1,19.233-36.977,20.077-33.835,42.445-65.883,64.74-97.971q31.534-45.392,63.209-90.664c5.678-8.122,11.567-16.066,17.374-24.079.97-1.339,2.085-2.6.149-4.62a10.84,10.84,0,0,0-2.495,1.807q-14.464,18.158-28.834,36.406c-17.612,22.253-35.366,44.375-52.8,66.8-11,14.148-22.077,28.291-32.125,43.242-18.766,27.917-36.778,56.444-55.171,84.663-4.98,7.642-10.075,15.2-15.376,22.577-2.7,3.757-6.393,5.78-11.039,5.259-5.095-.574-7.242-3.419-5.692-8.887a57.435,57.435,0,0,1,4.935-12.608c9.659-17.032,19.4-34.011,29.484-50.745,20.821-34.569,44.29-66.995,67.482-99.644,7.487-10.538,14.392-21.576,21.544-32.4a2.684,2.684,0,0,0,.137-2.275,30.358,30.358,0,0,0-3.538,3.268Q123.63,308.22,94.169,345.342c-8.862,11.212-17.811,22.376-26.092,34.1-12.6,17.834-24.607,36.177-37,54.2-2.261,3.289-4.779,6.645-7.825,8.937-5.367,4.041-10.611,1.288-12.027-5.707a21.517,21.517,0,0,1,1.744-13.408,126.737,126.737,0,0,1,8.771-16.835c10.146-15.421,20.7-30.513,31.029-45.794,10.778-15.952,21.411-32.02,32.219-47.945,7.848-11.564,16.008-22.874,23.8-34.481q24.238-36.1,48.22-72.4a22.205,22.205,0,0,0,3.376-7.642,25.594,25.594,0,0,0-3.037,2.667c-17.4,20.783-35.252,41.139-52.019,62.516-26.1,33.271-51.422,67.271-77.168,100.877a135.372,135.372,0,0,1-11.881,13.512,14.49,14.49,0,0,1-7.022,3.731c-5.733,1.178-8.482-1.927-7.324-8.147a41.488,41.488,0,0,1,3.3-10.633c5.351-10.829,10.645-21.729,16.667-32.111,16.5-28.445,35.3-55.083,55.228-80.685,23.883-30.674,48.387-60.772,72.618-91.124q12.8-16.037,25.563-32.106a12.115,12.115,0,0,0,2.57-5.548c-3.092,2.934-6.315,5.714-9.256,8.819-35.753,37.712-69.231,77.759-101.342,119.2q-20.18,26.042-40.25,52.185c-3.186,4.154-5.987,8.663-9.176,12.815a31.468,31.468,0,0,1-5.834,5.923,6.248,6.248,0,0,1-8.029-.171c-2.632-2.008-4.678-4.63-3.776-8.411a37.313,37.313,0,0,1,3.108-8.686c4.486-8.494,9.025-16.971,13.9-25.2,19.647-33.13,40.012-65.714,62.634-96.514,12.433-16.929,25.275-33.495,37.865-50.285,2.964-3.953,5.889-7.991,7.8-12.684l-.934-1.089a43.515,43.515,0,0,0-4.248,3.429C107.53,133.755,94.693,146.846,82,160.107c-11.593,12.108-22.991,24.442-34.533,36.61-2.309,2.433-4.875,4.572-7.594,7.1a62.058,62.058,0,0,1-5.058-4.615c-1.991-2.259-2.863-4.979-1.337-7.994,1.842-3.641,3.445-7.511,5.759-10.761a200.332,200.332,0,0,1,13.064-16.6c29.493-33.321,60.586-64.793,92.645-95.1,17.026-16.1,34.549-31.56,51.983-47.13,3.671-3.276,7.883-5.842,11.938-8.565A15.1,15.1,0,0,1,213.615,11c3.358-.828,5.017.239,6.106,3.8a20.84,20.84,0,0,1-.824,13.492,52.528,52.528,0,0,1-5.736,11.479c-4.7,6.829-9.755,13.378-14.868,19.85-7.484,9.481-15.181,18.763-22.714,28.2-1.735,2.171-3.172,4.63-4.747,6.955l.767.966c2.671-2.315,5.372-4.592,8.008-6.952,2.657-2.378,5.266-4.821,7.871-7.267,18.521-17.4,36.863-35.045,55.629-52.119,8.782-7.991,18.374-14.908,27.621-22.275a30.421,30.421,0,0,1,3.9-2.619c4.177-2.383,7.031-1.449,8.668,3.256,2.644,7.6,1.886,14.767-3.165,21.047-2.012,2.5-4.163,4.871-6.125,7.418-.645.838-.9,2.038-.591,4.013a79.413,79.413,0,0,0,8.141-5c9.6-7.546,19.045-15.341,28.623-22.922,4.479-3.545,9.139-6.809,13.712-10.21,2.474-1.842,4.916-3.2,7.828-.828,3.3,2.69,4.859,6.273,3.9,10.271a19.434,19.434,0,0,1-2.2,5.729c-3.344,5.324-6.544,10.84-10.453,15.64-12.188,14.961-24.643,29.66-37.055,44.4q-34.709,41.237-69.462,82.431a89.545,89.545,0,0,0-8.329,11.964c2.431-.164,3.87-2.061,5.337-3.618Q230.512,150,247.425,131.747q42.739-46.242,85.435-92.533a76.2,76.2,0,0,1,10.382-9.8,33.482,33.482,0,0,1,10.787-5.369c5.07-1.381,7.612,1.185,7.7,6.9a79.118,79.118,0,0,1-.677,8.089c-.121,1.386-.224,2.775-.41,5.093,2.369-.652,4.147-1.049,5.875-1.63,7.194-2.421,13.236,3.515,11.279,11.474a28.6,28.6,0,0,1-4.17,8.8c-7.562,11.285-15.122,22.582-23.05,33.553-18.228,25.224-36.657,50.277-55.04,75.366-3.934,5.372-8.079,10.555-12.014,15.925a16.351,16.351,0,0,0-2.987,7.007c2.09-2.136,4.287-4.162,6.253-6.429,16.156-18.629,32.226-37.352,48.412-55.951Q365,97.984,395,63.935a67.146,67.146,0,0,1,9.817-8.522,12.028,12.028,0,0,1,5.28-2.184c5.946-.949,9.819,3.316,8.436,9.737a45.5,45.5,0,0,1-4.481,12.12,226.15,226.15,0,0,1-13.277,21.908q-19.638,27.729-39.893,54.925c-22.21,29.791-43.015,60.742-63.436,92.008-15.314,23.448-30.386,47.082-45.524,70.666a12.468,12.468,0,0,0-2.064,6.436c1.463-1.515,3.01-2.941,4.374-4.557,14.378-17.022,28.527-34.28,43.125-51.07q47.941-55.141,96.273-109.87c13.785-15.62,27.859-30.943,42.065-46.1a197.755,197.755,0,0,1,17.521-16.015,16.135,16.135,0,0,1,7.347-3.06c3.239-.6,4.88.906,6.084,4.308a12.485,12.485,0,0,1-.948,10.817,61.185,61.185,0,0,1-6.219,8.94c-9.549,11.1-19.53,21.76-28.788,33.135a298.305,298.305,0,0,0-19.07,26.565c-10.837,16.778-23.137,32.186-36.032,47-27.9,32.048-56.109,63.782-84.2,95.636-16.964,19.238-33.521,38.9-48.881,59.7-7.782,10.533-14.568,21.953-21.741,33.022a12.673,12.673,0,0,0-1.845,5.613,32.671,32.671,0,0,0,3.6-3.281c12-14.586,23.888-29.28,35.927-43.829q33.813-40.863,67.752-81.6c31.217-37.594,64.308-73.132,98.767-107.1,15.859-15.63,32.672-30.093,49.092-45.034a31.478,31.478,0,0,1,5.264-3.749c3.117-1.829,4.726-1.432,6.905,1.593a12.273,12.273,0,0,1,1.227,12.963,81.313,81.313,0,0,1-7.983,13.663c-8.459,11.31-17.182,22.386-25.95,33.412-27.31,34.343-54.949,68.378-81.97,102.993-28.143,36.051-55.23,73.056-79.409,112.494-4.143,6.758-7.942,13.771-11.815,20.723a55.677,55.677,0,0,0-2.337,5.465q.611.464,1.222.923M298.4,573.86c8.965-13.149,20.434-24.4,25.826-40.319-10.78,11.73-19.068,25.418-25.826,40.319" transform="translate(0.001 0)" fill="#e8137f"/>
        </g>
      </g>
    </g>
  </g>
</svg>
