<svg xmlns="http://www.w3.org/2000/svg" xmlns:xlink="http://www.w3.org/1999/xlink" width="202.12" height="8.75" viewBox="0 0 202.12 8.75">
  <defs>
    <clipPath id="clip-path">
      <rect id="Rectangle_313" data-name="Rectangle 313" width="202.12" height="8.75" transform="translate(0 0)" fill="#e8137f"/>
    </clipPath>
  </defs>
  <g id="Group_570" data-name="Group 570" transform="translate(0 0)">
    <g id="Group_551" data-name="Group 551" transform="translate(0 0)" clip-path="url(#clip-path)">
      <path id="Path_1589" data-name="Path 1589" d="M11.457,1.948C13.2.424,14.484.569,16.04,2.136c.388.391,1.449.305,2.144.164,1.918-.392,3.8-.964,5.71-1.39a8.123,8.123,0,0,1,2.3-.165c1.116.077,2.072.4,1.017,2.3L39.242.45c-.424,1.814.237,2.442,1.534,2.406,1.718-.047,3.434-.247,5.15-.246a8.233,8.233,0,0,1,2.295.517c.9.273,1.791.924,2.657.877,2.126-.115,4.235-.548,6.354-.827A3.265,3.265,0,0,1,58.8,3.148c2.406,1.017,4.645.04,6.95-.4,1.392-.266,2.947-1.124,4.018.816.2.355,1.214.44,1.812.358,2.118-.292,4.207-.812,6.33-1.043,1.36-.148,3.206-1.106,3.652,1.431.04.224.967.509,1.4.407,1.242-.292,2.418-.875,3.663-1.139a19.642,19.642,0,0,1,3.367-.255c1.5-.053,3.012.065,4.494-.108,1.77-.206,3.5-.74,5.271-.952,1.741-.208,2.813.349,1.6,2.441,2.727.862,5.106.013,7.205-.986A4.129,4.129,0,0,1,112.641,4a2.506,2.506,0,0,0,2.382.278c.732-.248,1.5-.41,2.2-.722.855-.38,1.658-.877,2.484-1.323q-.054-.355-.109-.71c1.383.675,2.752,1.379,4.155,2.007a2.641,2.641,0,0,0,1.46.255c1.459-.275,2.9-.648,4.335-1.037a1.175,1.175,0,0,0,.763-.6c.415-1.62,1.14-1.262,2.138-.49,1.849,1.431,5.819,1.527,8.7-.524a1.625,1.625,0,0,1,1.509.128c2.709,2.151,5.509,1.283,8.353.429a4.015,4.015,0,0,1,2.345-.276c3.317,1.358,6.372-.118,9.37-.944,2.247-.619,2.819-.888,3.387.842l.6-.895,1.049,1.757c1.411-.311,3.418.683,4.62-1.674a7.757,7.757,0,0,0,6.552,1.34c.541-.113,1.04-.419,1.576-.574.354-.1.922-.27,1.084-.105,1.321,1.355,2.9.729,4.391.645,1.751-.1,3.5-.308,5.247-.405,2.672-.149,5.348-.324,8.021-.317a11.117,11.117,0,0,1,2.871.822c-1.5,2.136-2.951,2.9-5.461,2.072a5.761,5.761,0,0,0-5.6.758,2.207,2.207,0,0,1-1.844.394c-1.719-.689-3.118.095-4.615.646A3.048,3.048,0,0,1,181,5.215a2.4,2.4,0,0,0-1.846-.338c-1.459.248-2.877.733-4.334,1a2.178,2.178,0,0,1-1.658-.28c-1.136-1.08-2.373-.849-3.659-.569-.813.177-1.613.429-2.433.559-2.667.426-3.37.036-4.41-2.542-2.1.727-4.22,1.427-6.317,2.2-1.49.551-2.843.736-4.113-.543a1.8,1.8,0,0,0-1.445-.181c-2.131.533-4.221,1.245-6.367,1.7a7.627,7.627,0,0,1-2.673-.285,9.463,9.463,0,0,0-2.366-.488c-1.587.174-3.136.78-4.72.874a20.845,20.845,0,0,1-3.845-.532,3.445,3.445,0,0,0-1.372.014c-2.162.632-4.3,1.356-6.463,1.981-1.356.391-2.676.537-3.728-.821-.208-.268-.985-.275-1.426-.148-1.769.51-3.507,1.131-5.262,1.69-1.28.408-2.433.439-3.247-.944a1.364,1.364,0,0,0-1.165-.4c-1.923.362-3.831.807-5.739,1.246-3.328.766-4.181.386-5.583-2.655-.993.2-2.033.382-3.065.609-2.235.491-4.379,1.4-6.8.687C86.094,6.793,85,7.357,84,7.522c-1.4.233-2.806.5-4.221.643-1.279.129-2.469-.038-2.35-2.183C75,6.5,72.788,6.874,70.636,7.453c-1.644.442-3.126.805-4.292-.907-.158-.233-.722-.3-1.082-.263a28.038,28.038,0,0,0-3,.421c-4.523.9-9.233.068-13.711,1.557a2.32,2.32,0,0,1-3.033-1.205c-.148-.305-1.015-.382-1.542-.36-1.721.069-3.437.3-5.157.338-1.428.03-2.793-.218-2.735-2.481-1.576.457-2.952.923-4.361,1.247a40.273,40.273,0,0,1-5.59,1.034,8.018,8.018,0,0,1-2.727-.8q.046-.307.09-.612c-2.366.555-4.735,1.095-7.1,1.671-1.376.336-2.707.706-3.506-1.023-.1-.225-.687-.331-1.042-.318-1.185.044-2.373.125-3.55.269-1.6.2-3.022.11-3.421-1.8L.33,5.5,0,4.915A9.778,9.778,0,0,1,1.372,3.561C3.66,2.041,6.078,1.175,8.808,2.392l-1.237.792a15.515,15.515,0,0,0,4.137-.658c1.182-.3,2.291-.512,3.141.77.217.327.893.349,1.615.6L14.622,1.321l-3.164.628" transform="translate(0 0)" fill="#e8137f"/>
    </g>
  </g>
</svg>
