<svg xmlns="http://www.w3.org/2000/svg" xmlns:xlink="http://www.w3.org/1999/xlink" width="97.531" height="60.298" viewBox="0 0 97.531 60.298">
  <defs>
    <clipPath id="clip-path">
      <path id="Path_301" data-name="Path 301" d="M108.667,22.852,95.149,15.2,81.631,22.953v2.78L79,27.312V29.8h0l2.7-1.546v3.058l4.064,2.306v-7.6L84.4,26.8V23.941l4.055-2.357V37.839l-2.7-1.546L79,32.491v2.214l16.2,9.209,16.2-8.972v-2.45l-6.759,3.8-2.72,1.546V21.694l4.055,2.366v2.7l-1.352-.786v7.6l4.047-2.273V28.242l2.7,1.555h0v-2.6l-2.7-1.58Zm-8.1.752V38.566l-5.4,3.042-5.4-3.042V20.824l2.746-1.571h0l2.7-1.571,5.4,3.151Zm-5.4-3.143,2.7,1.571V37.383l-2.7,1.521-2.653-1.521V22.032Zm0-8.077-6.759,3.878v-8.1h13.459v8.035ZM79.452,21.415l-.482.279V4.29l.482.27,6.3,3.6v9.657ZM111.37,4.408V21.567l-2.7-1.529h0l-4.081-2.222V8.337l4.081-2.4h0Z" transform="translate(-78.97 -4.29)" fill="none"/>
    </clipPath>
  </defs>
  <g id="JOL_logo-05" transform="translate(-4.56 -0.55)">
    <g id="Group_316" data-name="Group 316" transform="translate(69.361 4.836)" clip-path="url(#clip-path)">
      <rect id="Rectangle_97" data-name="Rectangle 97" width="105.033" height="68.839" transform="translate(-39.742 -16.855)" fill="#fff"/>
    </g>
    <path id="Path_302" data-name="Path 302" d="M28.318,27.81V64.984H4.56V55.226L12.535,47.4v9.623h8.153v-13l5.255-5.2-5.2.084-.051.152V27.81Z" transform="translate(0 -4.229)" fill="#fff"/>
    <path id="Path_303" data-name="Path 303" d="M35.77,27.66H59.688V65.054H35.77V43.864l5.154-5.154-5.154.11ZM52.017,57.087V35.627h-8.2V57.087Z" transform="translate(-4.842 -4.206)" fill="#fff"/>
    <path id="Path_304" data-name="Path 304" d="M90.978,55.126v9.716H67.17V43.721l5.069-5.069-5.069.076V27.66h7.6V56.926h8.153v-9.64Z" transform="translate(-9.713 -4.206)" fill="#fff"/>
    <path id="Path_305" data-name="Path 305" d="M27.622,2.789c0,.727-.355,1.1-1.284,1.1h-1.36V4.893H23.93V1.64h2.408C27.267,1.64,27.622,2.012,27.622,2.789Zm-1.157,0c0-.22-.1-.329-.38-.329H24.978v.667h1.107C26.363,3.11,26.465,2.992,26.465,2.789Z" transform="translate(-3.005 -0.169)" fill="#fff"/>
    <path id="Path_306" data-name="Path 306" d="M30.865,4.386h-1.69l-.22.507H27.84L29.352,1.64h1.386L32.2,4.893H31.093Zm-.355-.752-.482-1.107h0l-.49,1.107Z" transform="translate(-3.612 -0.169)" fill="#fff"/>
    <path id="Path_307" data-name="Path 307" d="M37.153,4.893H35.961l-.625-1.048h-.988V4.893H33.3V1.64h2.484c.929,0,1.284.38,1.284,1.073a.845.845,0,0,1-.7.921h0Zm-1.25-2.1c0-.2-.1-.313-.363-.313H34.348V3.1h1.233C35.8,3.1,35.9,3,35.9,2.789Z" transform="translate(-4.459 -0.169)" fill="#fff"/>
    <path id="Path_308" data-name="Path 308" d="M41.515,2.475H40.29V4.891H39.242V2.475H38V1.63h3.506Z" transform="translate(-5.188 -0.168)" fill="#fff"/>
    <path id="Path_309" data-name="Path 309" d="M44.872,3.811V4.893H43.816V3.811L42.27,1.64h1.242l.845,1.276L45.2,1.64h1.242Z" transform="translate(-5.85 -0.169)" fill="#fff"/>
    <path id="Path_310" data-name="Path 310" d="M50.407,4.887l-.482-1.994h0l-.473,1.994H48.118L47.18,1.634h1.149l.49,1.994h0l.49-2.028h1.183l.49,2.028h0l.49-2.028h1.149l-.929,3.287Z" transform="translate(-6.612 -0.163)" fill="#fff"/>
    <path id="Path_311" data-name="Path 311" d="M56.185,4.386h-1.69l-.228.507H53.16l1.5-3.253h1.386l1.5,3.253H56.4Zm-.329-.752-.49-1.107h0l-.507,1.107Z" transform="translate(-7.54 -0.169)" fill="#fff"/>
    <path id="Path_312" data-name="Path 312" d="M62.327,4.882h-.735V4.527a1.69,1.69,0,0,1-1.259.465c-1.343,0-2.163-.549-2.163-1.732s.845-1.69,2.129-1.69,1.952.456,2.019,1.208H61.085c0-.076-.118-.389-.786-.389s-.98.338-.98.845a.887.887,0,0,0,1.014.912c.7,0,.845-.313.845-.431h-.76V3.04h1.918Z" transform="translate(-8.317 -0.158)" fill="#fff"/>
    <path id="Path_313" data-name="Path 313" d="M67.785,3.26c0,1.183-.845,1.732-2.138,1.732S63.51,4.468,63.51,3.26s.845-1.69,2.137-1.69S67.785,2.068,67.785,3.26Zm-1.149,0c0-.549-.313-.845-.989-.845s-.988.338-.988.845.321.845.988.845S66.636,3.809,66.636,3.26Z" transform="translate(-9.145 -0.158)" fill="#fff"/>
    <path id="Path_314" data-name="Path 314" d="M72.777,1.64V4.893h-1.2l-1.538-2h0v2H69V1.64h1.233l1.521,1.994h0V1.64Z" transform="translate(-9.997 -0.169)" fill="#fff"/>
    <path id="Path_315" data-name="Path 315" d="M43.075,8.245H41.841v2.416H40.777V8.245H39.56V7.4h3.515Z" transform="translate(-5.43 -1.063)" fill="#fff"/>
    <path id="Path_316" data-name="Path 316" d="M48.1,9.03c0,1.183-.845,1.732-2.137,1.732S43.82,10.213,43.82,9.03s.845-1.69,2.138-1.69S48.1,7.847,48.1,9.03Zm-1.149,0c0-.549-.313-.887-.988-.887s-.988.338-.988.887.321.887.988.887S46.946,9.587,46.946,9.03Z" transform="translate(-6.091 -1.053)" fill="#fff"/>
    <path id="Path_317" data-name="Path 317" d="M55.783,10.663H54.735V8.4h0l-.845,2.264h-.845l-.845-2.3h0v2.3H51.17V7.41h1.69l.625,1.9h0l.617-1.9h1.69Z" transform="translate(-7.231 -1.064)" fill="#fff"/>
    <path id="Path_318" data-name="Path 318" d="M60.934,7.41V9.252c0,1.2-.735,1.512-1.867,1.512S57.2,10.443,57.2,9.252V7.41h1.048V9.252c0,.532.321.676.845.676s.845-.144.845-.676V7.41Z" transform="translate(-8.167 -1.064)" fill="#fff"/>
    <path id="Path_319" data-name="Path 319" d="M63.859,8.011c-.431,0-.591.11-.591.27s.127.22.372.245l1.132.127c.71.084,1.1.372,1.1,1.005,0,.9-.752,1.1-1.96,1.1S62,10.546,62,9.583h1.183c0,.38.329.456.769.456s.676-.093.676-.3-.169-.253-.439-.287l-1.014-.127c-.7-.084-1.115-.346-1.115-.972,0-.845.777-1.048,1.833-1.048s1.825.22,1.867,1.081H64.535C64.535,8.1,64.273,8.011,63.859,8.011Z" transform="translate(-8.911 -1.049)" fill="#fff"/>
    <path id="Path_320" data-name="Path 320" d="M67,10.663V7.41h1.048v3.253Z" transform="translate(-9.687 -1.064)" fill="#fff"/>
    <path id="Path_321" data-name="Path 321" d="M70.785,8.143a.845.845,0,0,0-.929.887.845.845,0,0,0,.929.887c.617,0,.786-.3.845-.6h1.25c0,.938-.794,1.445-2.053,1.445S68.74,10.213,68.74,9.03s.845-1.69,2.087-1.69,2.019.5,2.045,1.369H71.6C71.579,8.455,71.4,8.143,70.785,8.143Z" transform="translate(-9.957 -1.053)" fill="#fff"/>
    <path id="Path_322" data-name="Path 322" d="M40.338,14v.583h2.129v.769H40.338v1.056H39.29V13.19h3.278v.845Z" transform="translate(-5.388 -1.961)" fill="#fff"/>
    <path id="Path_323" data-name="Path 323" d="M44.678,14.423h2.129v.718H44.678v.524H46.95v.743H43.63V13.19H46.9v.777H44.678Z" transform="translate(-6.061 -1.961)" fill="#fff"/>
    <path id="Path_324" data-name="Path 324" d="M49.716,13.786c-.431,0-.591.11-.591.27s.118.22.372.245l1.132.127c.71.084,1.1.372,1.1,1.005,0,.9-.752,1.1-1.969,1.1s-1.876-.211-1.918-1.191h1.2c0,.389.321.456.76.456s.71-.093.71-.245-.177-.262-.439-.3l-1.014-.127c-.7-.084-1.115-.338-1.115-.972,0-.845.777-1.048,1.833-1.048s1.825.22,1.867,1.081H50.417C50.391,13.862,50.13,13.786,49.716,13.786Z" transform="translate(-6.714 -1.949)" fill="#fff"/>
    <path id="Path_325" data-name="Path 325" d="M55.986,14.015H54.761v2.391H53.714V14.015H52.48V13.17h3.506Z" transform="translate(-7.434 -1.958)" fill="#fff"/>
    <path id="Path_326" data-name="Path 326" d="M61.595,15.927H59.9l-.228.507H58.57l1.5-3.244h1.394l1.487,3.219H61.814Zm-.329-.752-.49-1.115h0l-.49,1.115Z" transform="translate(-8.379 -1.961)" fill="#fff"/>
    <path id="Path_327" data-name="Path 327" d="M67.785,13.19v3.219h-1.2l-1.538-1.994h0v1.994H64V13.19h1.233l1.5,1.952h0V13.19Z" transform="translate(-9.221 -1.961)" fill="#fff"/>
    <path id="Path_328" data-name="Path 328" d="M72.878,14.812c0,1.183-.642,1.622-1.842,1.622H69V13.19h2C72.236,13.19,72.878,13.629,72.878,14.812Zm-2.8-.8v1.605h.735c.591,0,.912-.22.912-.8s-.321-.8-.912-.8Z" transform="translate(-9.997 -1.961)" fill="#fff"/>
    <path id="Path_329" data-name="Path 329" d="M51.756,19.548c-.439,0-.6.11-.6.27s.127.22.372.245l1.132.127c.718.084,1.107.38,1.107,1.005,0,.9-.76,1.1-1.969,1.1s-1.884-.211-1.918-1.183h1.2c0,.38.321.448.76.448s.676-.093.676-.287-.169-.262-.431-.3l-1.022-.127c-.693-.084-1.107-.338-1.107-.972,0-.845.769-1.048,1.833-1.048s1.825.22,1.859,1.081h-1.2C52.432,19.641,52.161,19.548,51.756,19.548Z" transform="translate(-7.031 -2.836)" fill="#fff"/>
    <path id="Path_330" data-name="Path 330" d="M58.592,20.073c0,.727-.355,1.1-1.284,1.1h-1.36v1.048H54.9V19h2.408C58.237,19,58.592,19.338,58.592,20.073Zm-1.157,0c0-.22-.1-.329-.38-.329H55.948V20.4h1.107c.279.025.38-.084.38-.3Z" transform="translate(-7.81 -2.862)" fill="#fff"/>
    <path id="Path_331" data-name="Path 331" d="M63.855,20.562c0,1.183-.845,1.732-2.137,1.732s-2.137-.549-2.137-1.732.845-1.732,2.137-1.732S63.855,19.379,63.855,20.562Zm-1.149,0c0-.549-.321-.887-.988-.887s-.988.338-.988.887.321.887.988.887S62.706,21.111,62.706,20.562Z" transform="translate(-8.536 -2.836)" fill="#fff"/>
    <path id="Path_332" data-name="Path 332" d="M68.256,19.794H67.023v2.425H65.984V19.794H64.75V19h3.506Z" transform="translate(-9.338 -2.862)" fill="#fff"/>
    <path id="Path_333" data-name="Path 333" d="M70.886,19.548c-.431,0-.591.11-.591.27s.127.22.372.245l1.132.127c.71.084,1.1.38,1.1,1.005,0,.9-.752,1.1-1.96,1.1s-1.884-.211-1.926-1.183h1.2c0,.38.329.448.769.448s.676-.093.676-.287-.169-.262-.439-.3L70.2,20.849c-.7-.084-1.115-.338-1.115-.972,0-.845.777-1.048,1.833-1.048s1.825.22,1.867,1.081h-1.2C71.536,19.641,71.3,19.548,70.886,19.548Z" transform="translate(-9.999 -2.836)" fill="#fff"/>
    <path id="Path_334" data-name="Path 334" d="M102.478,60.18l10.231-10.248.465-.456V.55H76V60.637h26.03Zm-26.03,0V1.04h36.261V49.29l-10.89,10.89Z" transform="translate(-11.083 0)" fill="#fff"/>
  </g>
</svg>
