<svg xmlns="http://www.w3.org/2000/svg" xmlns:xlink="http://www.w3.org/1999/xlink" width="217.699" height="134.591" viewBox="0 0 217.699 134.591">
  <defs>
    <clipPath id="clip-path">
      <path id="Path_301" data-name="Path 301" d="M145.257,45.721,115.083,28.636,84.91,45.948v6.2l-5.884,3.526v5.544h0l6.016-3.451V64.6l9.071,5.148V52.774L91.1,54.528V48.154l9.052-5.261V79.176l-6.035-3.451L79.027,67.239v4.941l36.151,20.555,36.17-20.027V67.239l-15.087,8.486-6.072,3.451V43.138l9.052,5.28v6.016l-3.017-1.754V69.652l9.033-5.073V57.753l6.016,3.47h0V55.415l-6.035-3.526ZM127.172,47.4V80.8l-12.05,6.789L103.071,80.8V41.2l6.129-3.508h0l6.016-3.508,12.05,7.034Zm-12.05-7.015,6.035,3.508V78.157l-6.035,3.394L109.2,78.157V43.892Zm0-18.028-15.087,8.656V12.927h30.041V30.861ZM80.045,42.516l-1.075.622V4.29l1.075.6,14.068,8.034V34.482ZM151.291,4.554v38.3l-6.035-3.413h0l-9.108-4.96V13.323l9.108-5.356h0Z" transform="translate(-78.97 -4.29)" fill="none"/>
    </clipPath>
  </defs>
  <g id="JOL_logo-05" transform="translate(-4.56 -0.55)">
    <g id="Group_316" data-name="Group 316" transform="translate(149.202 10.117)" clip-path="url(#clip-path)">
      <rect id="Rectangle_97" data-name="Rectangle 97" width="234.445" height="153.656" transform="translate(-88.709 -37.622)" fill="#fff"/>
    </g>
    <path id="Path_302" data-name="Path 302" d="M57.589,27.81v82.976H4.56V89l17.8-17.463V93.022h18.2V64L52.29,52.382l-11.617.189-.113.339V27.81Z" transform="translate(0 24.147)" fill="#fff"/>
    <path id="Path_303" data-name="Path 303" d="M35.77,27.66H89.158v83.466H35.77V63.83l11.5-11.5-11.5.245ZM72.034,93.343v-47.9H53.742v47.9Z" transform="translate(27.646 24.015)" fill="#fff"/>
    <path id="Path_304" data-name="Path 304" d="M120.312,88.968v21.687H67.17V63.509L78.485,52.194l-11.315.17V27.66H84.142V92.985h18.2V71.468Z" transform="translate(55.461 24.015)" fill="#fff"/>
    <path id="Path_305" data-name="Path 305" d="M32.171,4.2c0,1.622-.792,2.452-2.866,2.452H26.268V8.9H23.93V1.64H29.3C31.379,1.64,32.171,2.47,32.171,4.2Zm-2.584,0c0-.49-.226-.735-.849-.735h-2.47v1.49h2.47C29.361,4.921,29.587,4.657,29.587,4.2Z" transform="translate(17.158 0.966)" fill="#fff"/>
    <path id="Path_306" data-name="Path 306" d="M34.591,7.769H30.82L30.329,8.9H27.84l3.376-7.26h3.093L37.571,8.9H35.1ZM33.8,6.091,32.724,3.62h0L31.63,6.091Z" transform="translate(20.622 0.966)" fill="#fff"/>
    <path id="Path_307" data-name="Path 307" d="M41.9,8.9H39.24l-1.4-2.338H35.638V8.9H33.3V1.64h5.544c2.074,0,2.866.849,2.866,2.395a1.886,1.886,0,0,1-1.565,2.056h0ZM39.108,4.2c0-.453-.226-.7-.811-.7H35.638V4.9h2.753C38.882,4.9,39.108,4.676,39.108,4.2Z" transform="translate(25.458 0.966)" fill="#fff"/>
    <path id="Path_308" data-name="Path 308" d="M45.845,3.516H43.111V8.909H40.772V3.516H38V1.63h7.826Z" transform="translate(29.622 0.957)" fill="#fff"/>
    <path id="Path_309" data-name="Path 309" d="M48.078,6.487V8.9H45.721V6.487L42.27,1.64h2.772l1.886,2.848L48.814,1.64h2.772Z" transform="translate(33.404 0.966)" fill="#fff"/>
    <path id="Path_310" data-name="Path 310" d="M54.384,8.936,53.309,4.485h0L52.253,8.936h-2.98L47.18,1.675h2.565l1.094,4.451h0L51.932,1.6h2.64l1.094,4.526h0L56.76,1.6h2.565L57.25,8.936Z" transform="translate(37.754 0.93)" fill="#fff"/>
    <path id="Path_311" data-name="Path 311" d="M59.911,7.769H56.14L55.63,8.9H53.16l3.357-7.26H59.61L62.947,8.9H60.4Zm-.735-1.678L58.082,3.62h0l-1.131,2.47Z" transform="translate(43.051 0.966)" fill="#fff"/>
    <path id="Path_312" data-name="Path 312" d="M67.448,8.962H65.808V8.17A3.772,3.772,0,0,1,63,9.208c-3,0-4.828-1.226-4.828-3.866S60.056,1.57,62.922,1.57s4.356,1.018,4.507,2.7H64.676c0-.17-.264-.867-1.754-.867s-2.188.754-2.188,1.886A1.98,1.98,0,0,0,63,7.322c1.565,0,1.886-.7,1.886-.962h-1.7V4.851h4.281Z" transform="translate(47.489 0.904)" fill="#fff"/>
    <path id="Path_313" data-name="Path 313" d="M73.052,5.342c0,2.64-1.886,3.866-4.771,3.866S63.51,8.038,63.51,5.342,65.4,1.57,68.281,1.57,73.052,2.683,73.052,5.342Zm-2.565,0c0-1.226-.7-1.886-2.206-1.886s-2.206.754-2.206,1.886.717,1.886,2.206,1.886S70.488,6.567,70.488,5.342Z" transform="translate(52.219 0.904)" fill="#fff"/>
    <path id="Path_314" data-name="Path 314" d="M77.43,1.64V8.9H74.752L71.32,4.431h0V8.9H69V1.64h2.753l3.394,4.451h0V1.64Z" transform="translate(57.082 0.966)" fill="#fff"/>
    <path id="Path_315" data-name="Path 315" d="M47.405,9.286H44.652v5.393H42.276V9.286H39.56V7.4h7.845Z" transform="translate(31.004 6.068)" fill="#fff"/>
    <path id="Path_316" data-name="Path 316" d="M53.362,11.112c0,2.64-1.886,3.866-4.771,3.866s-4.771-1.226-4.771-3.866S45.706,7.34,48.591,7.34,53.362,8.471,53.362,11.112Zm-2.565,0c0-1.226-.7-1.98-2.206-1.98s-2.206.754-2.206,1.98.717,1.98,2.206,1.98S50.8,12.356,50.8,11.112Z" transform="translate(34.777 6.015)" fill="#fff"/>
    <path id="Path_317" data-name="Path 317" d="M61.467,14.67H59.128V9.616h0L57.242,14.67H55.357L53.471,9.541h0V14.67h-2.3V7.41h3.772l1.4,4.243h0L57.714,7.41h3.772Z" transform="translate(41.288 6.077)" fill="#fff"/>
    <path id="Path_318" data-name="Path 318" d="M65.535,7.41v4.111c0,2.678-1.641,3.376-4.168,3.376S57.2,14.18,57.2,11.521V7.41h2.338v4.111c0,1.188.717,1.509,1.886,1.509s1.886-.321,1.886-1.509V7.41Z" transform="translate(46.629 6.077)" fill="#fff"/>
    <path id="Path_319" data-name="Path 319" d="M66.149,8.875c-.962,0-1.32.245-1.32.6s.283.49.83.547l2.527.283c1.584.189,2.452.83,2.452,2.244,0,2.018-1.678,2.452-4.375,2.452S62,14.533,62,12.383h2.64c0,.849.735,1.018,1.716,1.018s1.509-.207,1.509-.66-.377-.566-.981-.641l-2.263-.283c-1.565-.189-2.489-.773-2.489-2.169,0-1.886,1.735-2.338,4.092-2.338s4.073.49,4.168,2.414H67.657C67.657,9.083,67.073,8.875,66.149,8.875Z" transform="translate(50.881 5.988)" fill="#fff"/>
    <path id="Path_320" data-name="Path 320" d="M67,14.67V7.41h2.338v7.26Z" transform="translate(55.31 6.077)" fill="#fff"/>
    <path id="Path_321" data-name="Path 321" d="M73.3,9.132a1.886,1.886,0,0,0-2.074,1.98,1.886,1.886,0,0,0,2.074,1.98c1.377,0,1.754-.66,1.886-1.339h2.791c0,2.093-1.773,3.225-4.583,3.225s-4.658-1.226-4.658-3.866S70.626,7.34,73.4,7.34s4.507,1.113,4.564,3.055H75.114C75.076,9.829,74.68,9.132,73.3,9.132Z" transform="translate(56.852 6.015)" fill="#fff"/>
    <path id="Path_322" data-name="Path 322" d="M41.628,15v1.3h4.752v1.716H41.628v2.357H39.29V13.19h7.317v1.886Z" transform="translate(30.764 11.197)" fill="#fff"/>
    <path id="Path_323" data-name="Path 323" d="M45.968,15.943h4.752v1.6H45.968v1.169h5.073v1.66H43.63V13.19h7.3v1.735h-4.96Z" transform="translate(34.609 11.197)" fill="#fff"/>
    <path id="Path_324" data-name="Path 324" d="M52.027,14.619c-.962,0-1.32.245-1.32.6s.264.49.83.547l2.527.283c1.584.189,2.452.83,2.452,2.244,0,2.018-1.678,2.452-4.394,2.452s-4.187-.471-4.281-2.659h2.678c0,.867.717,1.018,1.7,1.018S53.8,18.9,53.8,18.56s-.4-.585-.981-.66l-2.263-.283c-1.565-.189-2.489-.754-2.489-2.169,0-1.886,1.735-2.338,4.092-2.338s4.073.49,4.168,2.414H53.592C53.535,14.788,52.951,14.619,52.027,14.619Z" transform="translate(38.338 11.126)" fill="#fff"/>
    <path id="Path_325" data-name="Path 325" d="M60.306,15.056H57.572v5.337H55.233V15.056H52.48V13.17h7.826Z" transform="translate(42.448 11.179)" fill="#fff"/>
    <path id="Path_326" data-name="Path 326" d="M65.321,19.3H61.55l-.509,1.131H58.57l3.357-7.242h3.112l3.319,7.185H65.812Zm-.735-1.678-1.094-2.489h0L62.4,17.622Z" transform="translate(47.843 11.197)" fill="#fff"/>
    <path id="Path_327" data-name="Path 327" d="M72.448,13.19v7.185H69.771l-3.432-4.451h0v4.451H64V13.19h2.753l3.357,4.356h0V13.19Z" transform="translate(52.653 11.197)" fill="#fff"/>
    <path id="Path_328" data-name="Path 328" d="M77.656,16.811c0,2.64-1.433,3.621-4.111,3.621H69V13.19h4.469C76.223,13.19,77.656,14.171,77.656,16.811Zm-6.242-1.792V18.6h1.641c1.32,0,2.037-.49,2.037-1.792s-.717-1.792-2.037-1.792Z" transform="translate(57.082 11.197)" fill="#fff"/>
    <path id="Path_329" data-name="Path 329" d="M54.067,20.433c-.981,0-1.339.245-1.339.6s.283.49.83.547l2.527.283c1.6.189,2.47.849,2.47,2.244,0,2.018-1.7,2.452-4.394,2.452s-4.205-.471-4.281-2.64h2.678c0,.849.717,1,1.7,1s1.509-.207,1.509-.641-.377-.585-.962-.66l-2.282-.283c-1.546-.189-2.47-.754-2.47-2.169,0-1.886,1.716-2.338,4.092-2.338s4.073.49,4.149,2.414H55.613C55.575,20.64,54.972,20.433,54.067,20.433Z" transform="translate(40.145 16.193)" fill="#fff"/>
    <path id="Path_330" data-name="Path 330" d="M63.141,21.395c0,1.622-.792,2.452-2.866,2.452H57.238v2.338H54.9V19h5.375C62.349,19,63.141,19.754,63.141,21.395Zm-2.584,0c0-.49-.226-.735-.849-.735h-2.47V22.13h2.47c.622.057.849-.189.849-.679Z" transform="translate(44.592 16.343)" fill="#fff"/>
    <path id="Path_331" data-name="Path 331" d="M69.122,22.7c0,2.64-1.886,3.866-4.771,3.866S59.58,25.336,59.58,22.7s1.886-3.866,4.771-3.866S69.122,20.056,69.122,22.7Zm-2.565,0c0-1.226-.717-1.98-2.206-1.98s-2.206.754-2.206,1.98.717,1.98,2.206,1.98S66.558,23.922,66.558,22.7Z" transform="translate(48.738 16.193)" fill="#fff"/>
    <path id="Path_332" data-name="Path 332" d="M72.576,20.773H69.823v5.412H67.5V20.773H64.75V19h7.826Z" transform="translate(53.317 16.343)" fill="#fff"/>
    <path id="Path_333" data-name="Path 333" d="M73.2,20.433c-.962,0-1.32.245-1.32.6s.283.49.83.547l2.527.283c1.584.189,2.452.849,2.452,2.244,0,2.018-1.678,2.452-4.375,2.452s-4.205-.471-4.3-2.64h2.678c0,.849.735,1,1.716,1s1.509-.207,1.509-.641-.377-.585-.981-.66l-2.263-.283c-1.565-.189-2.489-.754-2.489-2.169,0-1.886,1.735-2.338,4.092-2.338s4.073.49,4.168,2.414H74.762C74.649,20.64,74.121,20.433,73.2,20.433Z" transform="translate(57.091 16.193)" fill="#fff"/>
    <path id="Path_334" data-name="Path 334" d="M135.1,133.651l22.837-22.875,1.037-1.018V.55H76V134.669h58.1Zm-58.1,0V1.644h80.939v107.7l-24.308,24.308Z" transform="translate(63.283 0)" fill="#fff"/>
  </g>
</svg>
