<svg id="Group_628" data-name="Group 628" xmlns="http://www.w3.org/2000/svg" xmlns:xlink="http://www.w3.org/1999/xlink" width="127.1" height="123.598" viewBox="0 0 127.1 123.598">
  <defs>
    <clipPath id="clip-path">
      <rect id="Rectangle_349" data-name="Rectangle 349" width="127.1" height="123.598" fill="none"/>
    </clipPath>
  </defs>
  <g id="Group_627" data-name="Group 627" clip-path="url(#clip-path)">
    <path id="Path_1667" data-name="Path 1667" d="M51.726,132.766l-8.145,6.226c-3.929-4.755-8.96-7.347-15.082-7.236a17.829,17.829,0,0,0-11,4.048c-5.649,4.519-8.355,12.921-6.057,19.011,3.345,8.868,9.782,13.412,18.476,13.044,7.3-.309,13.86-5.207,15.779-12.068-.907-.069-1.746-.184-2.585-.189-4.528-.026-9.056-.077-13.583-.007-1.792.027-2.664-.454-2.558-2.446.143-2.7.035-5.41.035-8.339H57.21a28.791,28.791,0,1,1-42.223-20.05c12.364-6.941,29.39-3.336,36.739,8.006" transform="translate(-0.037 -55.328)" fill="#fff"/>
    <path id="Path_1668" data-name="Path 1668" d="M61.753,56.648H51.238V26.507l-.825-.221c-3.073,2.748-6.159,5.482-9.214,8.25-2.75,2.491-5.537,4.95-8.169,7.562-1.511,1.5-2.547,1.706-4.247.1-5.851-5.525-11.874-10.865-18.31-16.709v31.1H0V1.369L30.839,29.348,61.753,1.3Z" transform="translate(0 -0.594)" fill="#fff"/>
    <path id="Path_1669" data-name="Path 1669" d="M125.719,28.809a28.863,28.863,0,0,1,57.726-.026,28.863,28.863,0,1,1-57.726.026m28.676,18.13c9.9.078,18.522-7.783,18.33-17.283-.235-11.6-7.92-18.927-18.243-18.861-10.359.066-17.7,7.37-18.1,18.792-.321,9.252,8.282,17.275,18.012,17.351" transform="translate(-57.378 0)" fill="#fff"/>
    <path id="Path_1670" data-name="Path 1670" d="M143.391,141.567c-1.822,3.127-3.352,5.781-4.907,8.419-5.185,8.8-10.411,17.572-15.537,26.4-.868,1.5-1.777,2.239-3.6,2.134-2.968-.17-5.952-.046-9.617-.046l33.725-58.109,33.727,58.094c-4.085,0-7.565.126-11.023-.1-.769-.05-1.649-1.22-2.154-2.067q-9.5-15.957-18.89-31.974c-.451-.764-.938-1.506-1.722-2.759" transform="translate(-50.079 -54.937)" fill="#fff"/>
  </g>
</svg>
