<svg id="Group_561" data-name="Group 561" xmlns="http://www.w3.org/2000/svg" xmlns:xlink="http://www.w3.org/1999/xlink" width="138.679" height="263.792" viewBox="0 0 138.679 263.792">
  <defs>
    <clipPath id="clip-path">
      <rect id="Rectangle_316" data-name="Rectangle 316" width="138.679" height="263.792" fill="#e8137f"/>
    </clipPath>
  </defs>
  <g id="Group_560" data-name="Group 560" clip-path="url(#clip-path)">
    <path id="Path_1600" data-name="Path 1600" d="M96.344,313.554c-6.127-.962-7.552-3.841-3.93-8.613a84.8,84.8,0,0,1,11.013-11.849c1.571-1.4,4.4-1.681,6.715-1.9,3.273-.317,4.327-1.035,4.564-4.413.174-2.475.2-4.96.375-7.435.212-2.957,1.416-4.134,4.388-4.348a28.264,28.264,0,0,1,4.508-.129,5.59,5.59,0,0,0,5.988-3.513c1.745-3.961,3.113-8.091,4.614-12.159.206-.557.19-1.2.4-1.75a2.786,2.786,0,0,0-.914-3.623,5.937,5.937,0,0,1-1.735-3.764c-.409-5.911-.514-11.841-.844-17.759a15.682,15.682,0,0,0-.964-3.766,33.027,33.027,0,0,1-1.315-3.576c-1.068-5.523-1.978-11.076-3.066-16.594a5.216,5.216,0,0,0-1.5-2.432c-2.656-2.65-5.331-5.289-8.13-7.785-3.18-2.836-6.213-5.988-9.815-8.171-9.626-5.833-17.264-13.718-24.395-22.219-.821-.979-1.494-2.09-2.366-3.016-2.067-2.2-4.437-3.751-7.67-3.652a31.667,31.667,0,0,1-6.066-.342c-3.508-.576-4.717-3.47-2.742-6.547,1.414-2.2,3.067-4.252,4.925-6.8-2.077-.106-3.817-.11-5.533-.315a7.675,7.675,0,0,1-2.884-.89c-2.038-1.18-1.81-2.322-.85-4.419,1.281-2.8,3.386-2.372,5.537-2.2a28.61,28.61,0,0,1,6.444.861c4.675,1.5,5.951,6.7,2.763,10.385-.966,1.116-1.867,2.289-3.058,3.756a17.852,17.852,0,0,0,1.918.163c5.5-.247,9.552,2.548,12.74,6.541,6.7,8.39,13.925,16.212,22.843,22.271,6.168,4.189,11.092,9.662,16.225,14.939,1.4,1.441,2.685,2.854,4.96,3.176,1.935.274,2.477,1.947,2.547,3.933.134,3.785.515,7.567.936,11.334.224,2.006.733,3.982,1.143,5.965a4.949,4.949,0,0,0,.619,2.142c2.46,2.874,1.905,6.326,2.075,9.662.229,4.5.469,9,.9,13.482a3.883,3.883,0,0,0,1.714,2.3c1.709,1.168,2.484,2.618,1.941,4.614-1.32,4.853-2.624,9.714-4.1,14.521a22.747,22.747,0,0,1-2.3,4.623c-2.266,3.877-5.365,6.2-10.183,5.442a22.314,22.314,0,0,0-4.184.175c0,1.84-.083,3.614.017,5.377A10.858,10.858,0,0,1,116.7,294a8.516,8.516,0,0,1-5.561,1.629c-2.7-.084-4.834.435-6.645,2.466-2.972,3.332-6.022,6.6-9.308,10.182,1.5.431,2.276.635,3.042.882a3.743,3.743,0,0,1,2.9,4.052c-.369,5.477-.778,10.954-1.366,16.41a2.6,2.6,0,0,1-2.1,1.5,2.687,2.687,0,0,1-1.762-1.952c0-4.283.27-8.565.434-12.848.034-.888,0-1.779,0-2.767" transform="translate(-32.033 -76.471)" fill="#e8137f"/>
    <path id="Path_1601" data-name="Path 1601" d="M70.106,84.463a4.027,4.027,0,0,1-2.857-3.4c-.564-5.5-2.071-10.954-.906-16.548a2.433,2.433,0,0,1,.052-.446c3.238-7.6,5.2-15.855,12.177-21.409,4.842-3.853,8.448-8.832,11.781-14.589-3.686,0-6.9.061-10.112-.014-4.621-.107-6.059-1.607-6.124-6.142-.036-2.478-.111-4.956-.172-7.434a1.272,1.272,0,0,0-.126-.3,3.7,3.7,0,0,0-1-.226c-7.031.3-13.158-2.583-19.395-5.259-1.691-.726-3.811-.622-5.723-.561-.579.019-1.3,1.084-1.655,1.815C41.86,18.43,35.45,24.172,25.912,25.606c-3.835.577-7.8.325-11.711.315a2.388,2.388,0,0,0-2.611,1.762C10,31.4,8.13,35,6.6,38.172c1.22.977,2.5,1.63,3.247,2.669,2.219,3.091,4.63,5.912,8.005,7.8a10.738,10.738,0,0,1,4.943,5.915c.958,2.6,2.289,5.056,3.283,7.642.24.625.036,1.953-.387,2.185a3.408,3.408,0,0,1-2.749.242A5.249,5.249,0,0,1,21,62.248c-.931-1.882-1.551-3.923-2.539-5.77-.756-1.414-1.612-3.072-2.892-3.857C11.182,49.932,8.189,46.058,5.4,41.914A2.989,2.989,0,0,0,3.582,40.8C.238,40.242-.737,38.322.541,35.262c1.7-4.083,3.265-8.234,4.686-12.424.952-2.806,2.111-4,5.1-4.169,3.23-.18,6.47-.411,9.7-.329,8.595.218,14.7-3.518,18.453-11.2C39.739,4.565,40.826,1.568,43.83.8a19.273,19.273,0,0,1,12.2.4A40.33,40.33,0,0,1,60.808,3.2c4.659,2.619,9.712,2.912,14.873,2.858,4.894-.051,6.464,1.541,6.5,6.468a35.367,35.367,0,0,1-.246,4.267c-.161,1.405-.467,2.795-.757,4.46a92.06,92.06,0,0,0,10.059-.092c2.3-.259,4.406.081,5.263,1.969a7.277,7.277,0,0,1,.068,5.514,62.152,62.152,0,0,1-14.019,18.6,24.887,24.887,0,0,0-5.355,6.828c-2.128,4.189-4.287,8.543-5.278,13.08-1.218,5.576-1.249,11.411-1.81,17.308" transform="translate(0 0)" fill="#e8137f"/>
    <path id="Path_1602" data-name="Path 1602" d="M218.345,284.481a23.434,23.434,0,0,1-2.915,12.825,79.385,79.385,0,0,0-4.188,9.728,23.693,23.693,0,0,1-11.119,13.1c-4.882,2.794-9.766,5.588-14.557,8.533a23.15,23.15,0,0,0-5.453,4.274,48.818,48.818,0,0,0-9.319,14.76,26.111,26.111,0,0,1-11.732,14.076c-2.99,1.694-5.62,4.015-8.547,5.837-.77.48-2.528.6-2.975.11-.866-.954-1.9-1.75-2.1-3.585-.352-3.2,1.51-4.026,3.519-5.268a48.7,48.7,0,0,0,7.6-5.2,58.922,58.922,0,0,0,6.848-7.95c4.651-6.164,8.817-12.732,13.856-18.55,2.444-2.821,6.378-4.375,9.693-6.412,4.8-2.946,9.717-5.693,14.417-8.779a9.928,9.928,0,0,0,3.11-4.032c2.472-5.229,5.032-10.448,7-15.874,2-5.523,1.212-11.364-.125-16.887-2.137-8.828-4.807-17.5-9.28-25.552-1.954-3.517-2.948-7.555-4.677-11.215a19.562,19.562,0,0,0-3.454-4.28c-1.488-1.654-3.126-3.174-4.591-4.847-2.915-3.332-5.563-6.926-8.711-10.014a11.873,11.873,0,0,0-5.888-2.889c-4.814-.892-8.188-3.4-9.983-7.824-2.391-5.889-5.66-11.068-10.726-15.012-1.054-.821-1.359-1.778-.288-2.839.947-.937,1.813-.763,2.742.1,2.31,2.154,4.805,4.129,6.951,6.433a23.681,23.681,0,0,1,3.058,4.925c.716,1.313,1.179,2.762,1.88,4.085,1.631,3.074,3.9,5.118,7.653,5.439a15,15,0,0,1,10.734,5.96c2.555,3.234,5.059,6.509,7.659,9.706.693.852,1.718,1.426,2.485,2.229,1.693,1.773,3.977,3.336,4.864,5.465,5.416,13.01,12.091,25.551,15.348,39.384.768,3.26.827,6.687,1.212,10.038" transform="translate(-79.736 -104.243)" fill="#e8137f"/>
  </g>
</svg>
