<svg xmlns="http://www.w3.org/2000/svg" xmlns:xlink="http://www.w3.org/1999/xlink" width="1367.003" height="369.354" viewBox="0 0 1367.003 369.354">
  <defs>
    <clipPath id="clip-path">
      <path id="Intersection_4" data-name="Intersection 4" d="M498.06,361.8c-10.019-5.7-17.848-6.333-22.064,4.128a468.907,468.907,0,0,0-106.551-4.772c-13.007.873-26.455-3.235-39.8-3.882-22.916-1.106-45.907-1.317-68.871-1.78-2.346-.046-6.37.237-6.838,1.18-6.93,13.777-20.937,6.809-32.188,6.27-27.653-1.329-55.226-4.442-82.879-4.8-46.275-.592-92.59-.162-138.87.532V21.256c14.453-.8,28.824-4.021,43.333-4.656C78.186,15.069,113.14,14.856,148,13.447c16.931-.691,33.721-3.513,50.648-4.173,8.747-.345,17.52-.134,26.3.076,7.79.186,15.589.374,23.366.174,8.035-.207,15.908-2.943,23.987-3.644,33.935-2.929,68-1,102.374-4.683,29.308-3.145,60.876,5.867,91.429,9.565,5.728.7,11.417,2.568,17.075,2.452C539.795,12.05,596.393,10.494,653,9.244c19.172-.423,37.505.09,55.371,8.382,8.149,3.774,22,1.115,33.14.286,23.24-1.735,46.383-4.26,69.584-6.339q57.254-5.128,114.538-10.09c42.473-3.661,84.159-.084,126.121,5.7,22.969,3.159,47.187,1.387,70.833,1.2,21.606-.178,43.194-1.576,64.8-1.72,9.276-.057,19.792-1.851,26.267,6.789,1.3,1.735,9.167,1.122,13.894.776C1273.713,10.837,1319.8,6.594,1366,3.73V355.614c-2.264.341-4.5.747-6.715,1.233-23.489,5.146-46.44,4.865-69.326,4.585-10.6-.126-21.173-.256-31.781.153-46.737,1.8-93.658.87-140.491.857-34.718-.014-70.165-3.88-103.956.267-22.375,2.742-44.378,2.075-66.328,1.406-13.863-.42-27.7-.844-41.608-.4-43.045,1.357-86.165,1.19-129.249,1.579-52.762.478-105.564.067-158.274,1.541-34.626.97-69.273.456-103.89,1.627-.114,0-.232,0-.345,0C508.791,368.462,502.923,364.563,498.06,361.8Z" fill="#1e1e1e" stroke="rgba(0,0,0,0)" stroke-width="1"/>
    </clipPath>
    <clipPath id="clip-path-2">
      <rect id="Rectangle_332" data-name="Rectangle 332" width="403.557" height="317.684" fill="#f548a0"/>
    </clipPath>
    <clipPath id="clip-path-3">
      <rect id="Rectangle_333" data-name="Rectangle 333" width="403.557" height="317.684" fill="#29e8f9"/>
    </clipPath>
  </defs>
  <g id="Group_599" data-name="Group 599" transform="translate(0.5 -4809.073)">
    <path id="Intersection_3" data-name="Intersection 3" d="M498.06,361.8c-10.019-5.7-17.848-6.333-22.064,4.128a468.907,468.907,0,0,0-106.551-4.772c-13.007.873-26.455-3.235-39.8-3.882-22.916-1.106-45.907-1.317-68.871-1.78-2.346-.046-6.37.237-6.838,1.18-6.93,13.777-20.937,6.809-32.188,6.27-27.653-1.329-55.226-4.442-82.879-4.8-46.275-.592-92.59-.162-138.87.532V21.256c14.453-.8,28.824-4.021,43.333-4.656C78.186,15.069,113.14,14.856,148,13.447c16.931-.691,33.721-3.513,50.648-4.173,8.747-.345,17.52-.134,26.3.076,7.79.186,15.589.374,23.366.174,8.035-.207,15.908-2.943,23.987-3.644,33.935-2.929,68-1,102.374-4.683,29.308-3.145,60.876,5.867,91.429,9.565,5.728.7,11.417,2.568,17.075,2.452C539.795,12.05,596.393,10.494,653,9.244c19.172-.423,37.505.09,55.371,8.382,8.149,3.774,22,1.115,33.14.286,23.24-1.735,46.383-4.26,69.584-6.339q57.254-5.128,114.538-10.09c42.473-3.661,84.159-.084,126.121,5.7,22.969,3.159,47.187,1.387,70.833,1.2,21.606-.178,43.194-1.576,64.8-1.72,9.276-.057,19.792-1.851,26.267,6.789,1.3,1.735,9.167,1.122,13.894.776C1273.713,10.837,1319.8,6.594,1366,3.73V355.614c-2.264.341-4.5.747-6.715,1.233-23.489,5.146-46.44,4.865-69.326,4.585-10.6-.126-21.173-.256-31.781.153-46.737,1.8-93.658.87-140.491.857-34.718-.014-70.165-3.88-103.956.267-22.375,2.742-44.378,2.075-66.328,1.406-13.863-.42-27.7-.844-41.608-.4-43.045,1.357-86.165,1.19-129.249,1.579-52.762.478-105.564.067-158.274,1.541-34.626.97-69.273.456-103.89,1.627-.114,0-.232,0-.345,0C508.791,368.462,502.923,364.563,498.06,361.8Z" transform="translate(0 4809.465)" fill="#e8137f" stroke="rgba(0,0,0,0)" stroke-width="1"/>
    <g id="Mask_Group_134" data-name="Mask Group 134" transform="translate(0 4809.465)" clip-path="url(#clip-path)">
      <g id="Group_594" data-name="Group 594" transform="translate(-54.083 -48.789)">
        <g id="Group_592" data-name="Group 592" transform="translate(521 274.282)" clip-path="url(#clip-path-2)">
          <path id="Path_1622" data-name="Path 1622" d="M207.575,224.235c3.19-2.864,6.5-5.659,9.553-8.6,15.908-15.33,32.922-29.926,50.39-44.226,23.352-19.116,47.184-37.874,71.935-55.946,7.664-5.6,15.62-10.96,23.521-16.365,1.78-1.216,3.886-2.154,5.838-3.226a4.125,4.125,0,0,1,4.9.479,7.06,7.06,0,0,1,3,7.421c-.182.933-.516,1.849-.905,3.207a12.326,12.326,0,0,0,2.925-.579c1.61-.87,3.025-1.947,4.591-2.87a8.541,8.541,0,0,1,8.977.01c2.474,1.441,3.3,3.551,1.445,6.073a55.48,55.48,0,0,1-7.293,7.907c-6.347,5.8-12.932,11.442-19.386,17.172-1.195,1.062-2.168,2.266-3.328,3.352q-6.149,5.761-12.365,11.481c-5.159,4.728-10.558,9.311-15.51,14.16-14.429,14.13-28.692,28.357-42.993,42.562a6.892,6.892,0,0,0-2.071,3.573,13.743,13.743,0,0,0,2.091-1.19c10.17-8.554,20.357-17.094,30.446-25.7,14.712-12.554,29.263-25.218,44.069-37.707,3.776-3.185,8.225-5.909,12.418-8.8a11.64,11.64,0,0,1,2.855-1.38c2.044-.688,3.694-.17,4.278,1.5,1.234,3.53,1.654,7.1-1.553,10.206-3.058,2.96-6.294,5.821-9.578,8.641a452.938,452.938,0,0,0-33.112,31.591q-3.111,3.273-6.134,6.6a1.42,1.42,0,0,0-.167,1.718c1.909-1.351,3.908-2.636,5.712-4.064,10.708-8.47,21.283-17.036,32.09-25.432,4.353-3.382,9.073-6.509,13.83-9.565a43.405,43.405,0,0,1,8.125-4.077c4.268-1.6,7.87.292,7.329,3.96a12.065,12.065,0,0,1-2.874,5.973q-6.366,7.252-13.429,14.145c-8.709,8.5-17.642,16.874-26.452,25.315-.829.794-1.455,1.711-2.588,3.062,3,.24,5.208.489,7.422.57,2.19.08,3.383.9,3.823,2.474.175.631.441,1.25.575,1.884a12.259,12.259,0,0,0,4.242,6.915c3.655,3.151,3.837,4.41.4,7.63-6.779,6.362-13.6,12.716-20.856,18.761-8.019,6.683-16.512,13.038-24.872,19.482a31.652,31.652,0,0,1-5.285,3.234c-5.18,2.559-9.185,1.438-11.132-3-.175-.4-.337-.8-.563-1.343a8.769,8.769,0,0,0-5.653,2.6c-6.26,5.426-12.423,10.916-18.62,16.384-4.254,3.755-8.407,7.58-12.806,11.232a25.872,25.872,0,0,1-5.979,3.581c-3.653,1.62-6.605.41-6.679-2.79a30.621,30.621,0,0,1,1.023-6.716,15.257,15.257,0,0,0,.721-4.427c-1.591,1.194-3.291,2.315-4.754,3.6-6.512,5.694-12.93,11.448-19.432,17.15-3.621,3.175-7.213,6.38-11.058,9.394a54.634,54.634,0,0,1-8.361,5.458c-3.606,1.879-5.993,1.106-7.483-2.018-.721-1.513-1.377-3.045-2.079-4.565-.032-.07-.213-.1-.6-.269a21.036,21.036,0,0,1-1.72,1.616,29.3,29.3,0,0,1-5.188,3.739c-4.244,1.991-8.949.077-9.08-3.726a12.75,12.75,0,0,1,1.388-5.994c2.8-5.638,5.6-11.3,9.006-16.739a289.012,289.012,0,0,1,38.857-49.276c13.575-13.813,26.652-27.909,39.976-41.865,3.33-3.489,6.779-6.911,10.14-10.382a15.381,15.381,0,0,0,1.32-1.792l-.662-.428a48.445,48.445,0,0,0-4.067,3.053c-14.736,13.665-29.735,27.176-44.035,41.1-11.77,11.463-22.879,23.328-33.924,35.207-6.211,6.679-11.673,13.761-17.526,20.636-2.925,3.435-5.738,6.95-9.049,10.162a36.174,36.174,0,0,1-7.506,5.138,7.266,7.266,0,0,1-6.81-.212,3.523,3.523,0,0,1-1.923-4.623,19.138,19.138,0,0,1,2.324-5.515c4.591-6.681,9.4-13.273,14.137-19.9,2.3-3.219,4.659-6.415,6.893-9.661a36.035,36.035,0,0,0,2-3.722l-.938-.459A34.925,34.925,0,0,0,190,259.355c-14.1,15.789-27.55,31.88-39.388,48.73a27.333,27.333,0,0,1-4,4.556,6.814,6.814,0,0,1-6.9,1.313c-2.418-.741-3.509-1.672-3.342-3.653a13.118,13.118,0,0,1,1.3-5.041c3.42-6.5,6.806-13.016,10.674-19.362,7.684-12.613,15.608-25.141,23.562-37.658,13.927-21.917,31.1-42.314,50.242-61.78,5.772-5.869,11.678-11.661,17.439-17.535,1.9-1.939,3.9-3.875,5.05-6.592-2.307.28-3.042,1.56-4.041,2.413-12.449,10.62-24.571,21.471-37.286,31.9-20.475,16.794-38.523,35.061-56.832,53.18-9.153,9.058-18.431,18.044-27.448,27.179-3.565,3.611-6.544,7.556-9.852,11.316-1.652,1.877-3.342,3.744-5.2,5.5-1.659,1.564-3.944,1.982-6.524,1.487-2.758-.528-4.057-1.435-3.91-3.581a12.934,12.934,0,0,1,1.528-5.959c4.749-7.7,9.735-15.317,14.8-22.9,3.655-5.472,7.589-10.837,11.349-16.269a3.824,3.824,0,0,0,.7-2.837,17.484,17.484,0,0,0-1.991,1.471c-6.764,6.646-13.453,13.337-20.25,19.962-4.62,4.5-9.348,8.936-14.1,13.352a16.149,16.149,0,0,1-3.459,2.37,6.54,6.54,0,0,1-7.017-.183c-1.979-1.193-2.5-2.439-1.518-4.626a37.528,37.528,0,0,1,2.843-5.045c7.448-11.419,16.492-22.12,25.581-32.8,13.711-16.1,27.009-32.427,41.379-48.185,19.219-21.077,39.309-41.7,58.99-62.531,2.559-2.71,4.936-5.522,7.322-8.326a18.134,18.134,0,0,0,1.557-2.912,18.252,18.252,0,0,0-2.969,1.186c-2.044,1.491-4.072,3-5.979,4.6-17.948,14.98-36.187,29.765-53.694,45.037-13.122,11.45-25.273,23.545-37.894,35.328-8.595,8.022-17.142,16.078-25.922,23.982a153.418,153.418,0,0,0-18.1,19.137,34.194,34.194,0,0,1-3.733,4.317,13.088,13.088,0,0,1-4.169,2.644c-3.732,1.377-7.963-.559-7.683-3.678a15.6,15.6,0,0,1,2.392-7.441,226.483,226.483,0,0,1,14.3-19.073c14.926-17.452,31.555-33.983,48.13-50.535q23.443-23.414,46.992-46.766c4.222-4.19,8.6-8.287,12.917-12.421.721-.69,1.55-1.343.111-2.383a8.637,8.637,0,0,0-1.855.932q-10.753,9.366-21.436,18.779c-13.093,11.478-26.293,22.889-39.25,34.456C105.234,171.709,97,179,89.527,186.716c-13.951,14.4-27.342,29.115-41.016,43.671-3.7,3.942-7.49,7.842-11.431,11.646a10.217,10.217,0,0,1-8.207,2.713c-3.788-.3-5.384-1.764-4.232-4.584a25.171,25.171,0,0,1,3.669-6.5c7.181-8.785,14.426-17.543,21.919-26.175,15.479-17.831,32.927-34.557,50.169-51.4,5.566-5.435,10.7-11.129,16.017-16.711.226-.238.32-.549.1-1.173a21.6,21.6,0,0,0-2.631,1.686q-21.976,19.1-43.878,38.248c-6.588,5.783-13.242,11.542-19.4,17.587-9.37,9.2-18.293,18.661-27.5,27.955a24.138,24.138,0,0,1-5.818,4.61c-3.99,2.084-7.888.665-8.942-2.944a8.11,8.11,0,0,1,1.3-6.916,61.9,61.9,0,0,1,6.52-8.684c7.543-7.955,15.392-15.739,23.068-23.621,8.013-8.228,15.918-16.517,23.953-24.731,5.835-5.965,11.9-11.8,17.7-17.786,12.013-12.413,23.921-24.885,35.848-37.345a10.2,10.2,0,0,0,2.51-3.942,18.671,18.671,0,0,0-2.258,1.376c-12.934,10.72-26.207,21.22-38.673,32.247-19.4,17.162-38.229,34.7-57.37,52.034a86.316,86.316,0,0,1-8.833,6.97,12.84,12.84,0,0,1-5.22,1.925c-4.262.607-6.306-.994-5.445-4.2a17.055,17.055,0,0,1,2.45-5.485c3.978-5.586,7.914-11.208,12.391-16.563C28.55,155.945,42.522,142.2,57.34,129,75.1,113.177,93.313,97.651,111.328,82q9.515-8.272,19-16.561a5.685,5.685,0,0,0,1.911-2.862c-2.3,1.513-4.695,2.947-6.881,4.549-26.58,19.452-51.469,40.109-75.342,61.485q-15,13.433-29.924,26.918c-2.369,2.143-4.451,4.469-6.822,6.61a21.309,21.309,0,0,1-4.337,3.055,6.287,6.287,0,0,1-5.969-.088c-1.957-1.036-3.478-2.388-2.808-4.339a15.914,15.914,0,0,1,2.311-4.48c3.335-4.382,6.709-8.754,10.335-13C27.413,126.2,42.554,109.388,59.372,93.5c9.243-8.732,18.79-17.277,28.151-25.938a30.573,30.573,0,0,0,5.8-6.543l-.694-.562a33.062,33.062,0,0,0-3.158,1.769C79.942,68.993,70.4,75.746,60.96,82.586c-8.618,6.245-17.092,12.607-25.673,18.884-1.717,1.255-3.624,2.358-5.646,3.664a44.4,44.4,0,0,1-3.76-2.38c-1.48-1.165-2.129-2.568-.994-4.123a40.981,40.981,0,0,1,4.281-5.551,120.285,120.285,0,0,1,9.713-8.565C60.807,67.327,83.922,51.093,107.756,35.46c12.658-8.3,25.685-16.279,38.646-24.31a85.608,85.608,0,0,1,8.875-4.418,14.184,14.184,0,0,1,3.532-1.06c2.5-.427,3.73.123,4.54,1.958a7.719,7.719,0,0,1-.613,6.959,25.218,25.218,0,0,1-4.264,5.921c-3.495,3.522-7.252,6.9-11.053,10.239-5.564,4.89-11.286,9.678-16.886,14.545-1.29,1.12-2.358,2.388-3.529,3.587l.57.5c1.986-1.194,3.994-2.369,5.954-3.586,1.976-1.226,3.915-2.487,5.852-3.748,13.769-8.977,27.405-18.077,41.356-26.884,6.529-4.122,13.66-7.69,20.534-11.49a25.016,25.016,0,0,1,2.9-1.351c3.105-1.229,5.227-.748,6.444,1.679,1.965,3.922,1.4,7.617-2.353,10.857-1.5,1.29-3.1,2.513-4.553,3.826a1.951,1.951,0,0,0-.439,2.07c2.027-.853,4.184-1.564,6.052-2.581,7.14-3.892,14.159-7.913,21.28-11.824,3.33-1.829,6.794-3.512,10.194-5.267,1.839-.95,3.655-1.652,5.819-.427,2.455,1.387,3.612,3.236,2.9,5.3a8.484,8.484,0,0,1-1.639,2.955,85.447,85.447,0,0,1-7.771,8.068c-9.061,7.717-18.321,15.3-27.548,22.9q-25.8,21.271-51.641,42.519a50.377,50.377,0,0,0-6.192,6.171,6.865,6.865,0,0,0,3.968-1.866q12.683-9.329,25.256-18.745,31.774-23.852,63.516-47.73a53.612,53.612,0,0,1,7.718-5.055A30.376,30.376,0,0,1,263.2,12.4c3.769-.713,5.659.611,5.726,3.559a28.653,28.653,0,0,1-.5,4.173c-.09.715-.167,1.432-.3,2.627,1.761-.336,3.083-.541,4.368-.841,5.348-1.249,9.84,1.813,8.385,5.918a13.447,13.447,0,0,1-3.1,4.537c-5.622,5.821-11.242,11.648-17.136,17.307-13.551,13.011-27.252,25.934-40.919,38.875-2.925,2.771-6.007,5.445-8.931,8.214a7.435,7.435,0,0,0-2.221,3.615c1.554-1.1,3.187-2.147,4.649-3.316C225.221,87.461,237.168,77.8,249.2,68.209q22.157-17.667,44.457-35.231a49.255,49.255,0,0,1,7.3-4.4,11.375,11.375,0,0,1,3.926-1.127c4.421-.489,7.3,1.711,6.272,5.023a19.607,19.607,0,0,1-3.332,6.252,118.519,118.519,0,0,1-9.871,11.3q-14.6,14.3-29.658,28.331c-16.512,15.367-31.979,31.332-47.16,47.459-11.385,12.095-22.59,24.286-33.844,36.451a5.234,5.234,0,0,0-1.535,3.32c1.087-.781,2.238-1.517,3.252-2.35,10.689-8.78,21.208-17.682,32.061-26.343q35.641-28.443,71.573-56.673c10.248-8.057,20.711-15.961,31.273-23.781a141.451,141.451,0,0,1,13.025-8.261,15.225,15.225,0,0,1,5.462-1.578c2.408-.308,3.628.467,4.523,2.222a4.758,4.758,0,0,1-.7,5.58,34.4,34.4,0,0,1-4.623,4.611c-7.1,5.724-14.519,11.224-21.4,17.092a170.517,170.517,0,0,0-14.177,13.7,245.023,245.023,0,0,1-26.788,24.243c-20.745,16.531-41.714,32.9-62.6,49.331-12.612,9.923-24.921,20.068-36.34,30.792-5.785,5.433-10.83,11.324-16.163,17.033a5.337,5.337,0,0,0-1.371,2.9,23.382,23.382,0,0,0,2.673-1.692c8.92-7.524,17.759-15.1,26.709-22.608q25.138-21.078,50.37-42.092c23.208-19.391,47.809-37.722,73.427-55.244,11.79-8.062,24.29-15.522,36.5-23.229a25.274,25.274,0,0,1,3.914-1.934c2.318-.944,3.514-.738,5.134.822,2.151,2.069,2.459,4.439.912,6.687a41.878,41.878,0,0,1-5.935,7.047C350.165,87.7,343.681,93.411,337.162,99.1c-20.3,17.715-40.851,35.271-60.94,53.126-20.922,18.6-41.06,37.684-59.036,58.026-3.08,3.486-5.9,7.1-8.783,10.689a25.117,25.117,0,0,0-1.737,2.819l.909.476m14.268,71.772c6.665-6.783,15.192-12.584,19.2-20.8a81.362,81.362,0,0,0-19.2,20.8" transform="translate(0 0)" fill="#f548a0"/>
        </g>
        <g id="Group_593" data-name="Group 593" transform="translate(699 383)" clip-path="url(#clip-path-3)">
          <path id="Path_1623" data-name="Path 1623" d="M207.575,224.235c3.19-2.864,6.5-5.659,9.553-8.6,15.908-15.33,32.922-29.926,50.39-44.226,23.352-19.116,47.184-37.874,71.935-55.946,7.664-5.6,15.62-10.96,23.521-16.365,1.78-1.216,3.886-2.154,5.838-3.226a4.125,4.125,0,0,1,4.9.479,7.06,7.06,0,0,1,3,7.421c-.182.933-.516,1.849-.905,3.207a12.326,12.326,0,0,0,2.925-.579c1.61-.87,3.025-1.947,4.591-2.87a8.541,8.541,0,0,1,8.977.01c2.474,1.441,3.3,3.551,1.445,6.073a55.48,55.48,0,0,1-7.293,7.907c-6.347,5.8-12.932,11.442-19.386,17.172-1.195,1.062-2.168,2.266-3.328,3.352q-6.149,5.761-12.365,11.481c-5.159,4.728-10.558,9.311-15.51,14.16-14.429,14.13-28.692,28.357-42.993,42.562a6.892,6.892,0,0,0-2.071,3.573,13.743,13.743,0,0,0,2.091-1.19c10.17-8.554,20.357-17.094,30.446-25.7,14.712-12.554,29.263-25.218,44.069-37.707,3.776-3.185,8.225-5.909,12.418-8.8a11.64,11.64,0,0,1,2.855-1.38c2.044-.688,3.694-.17,4.278,1.5,1.234,3.53,1.654,7.1-1.553,10.206-3.058,2.96-6.294,5.821-9.578,8.641a452.938,452.938,0,0,0-33.112,31.591q-3.111,3.273-6.134,6.6a1.42,1.42,0,0,0-.167,1.718c1.909-1.351,3.908-2.636,5.712-4.064,10.708-8.47,21.283-17.036,32.09-25.432,4.353-3.382,9.073-6.509,13.83-9.565a43.405,43.405,0,0,1,8.125-4.077c4.268-1.6,7.87.292,7.329,3.96a12.065,12.065,0,0,1-2.874,5.973q-6.366,7.252-13.429,14.145c-8.709,8.5-17.642,16.874-26.452,25.315-.829.794-1.455,1.711-2.588,3.062,3,.24,5.208.489,7.422.57,2.19.08,3.383.9,3.823,2.474.175.631.441,1.25.575,1.884a12.259,12.259,0,0,0,4.242,6.915c3.655,3.151,3.837,4.41.4,7.63-6.779,6.362-13.6,12.716-20.856,18.761-8.019,6.683-16.512,13.038-24.872,19.482a31.652,31.652,0,0,1-5.285,3.234c-5.18,2.559-9.185,1.438-11.132-3-.175-.4-.337-.8-.563-1.343a8.769,8.769,0,0,0-5.653,2.6c-6.26,5.426-12.423,10.916-18.62,16.384-4.254,3.755-8.407,7.58-12.806,11.232a25.872,25.872,0,0,1-5.979,3.581c-3.653,1.62-6.605.41-6.679-2.79a30.621,30.621,0,0,1,1.023-6.716,15.257,15.257,0,0,0,.721-4.427c-1.591,1.194-3.291,2.315-4.754,3.6-6.512,5.694-12.93,11.448-19.432,17.15-3.621,3.175-7.213,6.38-11.058,9.394a54.634,54.634,0,0,1-8.361,5.458c-3.606,1.879-5.993,1.106-7.483-2.018-.721-1.513-1.377-3.045-2.079-4.565-.032-.07-.213-.1-.6-.269a21.036,21.036,0,0,1-1.72,1.616,29.3,29.3,0,0,1-5.188,3.739c-4.244,1.991-8.949.077-9.08-3.726a12.75,12.75,0,0,1,1.388-5.994c2.8-5.638,5.6-11.3,9.006-16.739a289.012,289.012,0,0,1,38.857-49.276c13.575-13.813,26.652-27.909,39.976-41.865,3.33-3.489,6.779-6.911,10.14-10.382a15.381,15.381,0,0,0,1.32-1.792l-.662-.428a48.445,48.445,0,0,0-4.067,3.053c-14.736,13.665-29.735,27.176-44.035,41.1-11.77,11.463-22.879,23.328-33.924,35.207-6.211,6.679-11.673,13.761-17.526,20.636-2.925,3.435-5.738,6.95-9.049,10.162a36.174,36.174,0,0,1-7.506,5.138,7.266,7.266,0,0,1-6.81-.212,3.523,3.523,0,0,1-1.923-4.623,19.138,19.138,0,0,1,2.324-5.515c4.591-6.681,9.4-13.273,14.137-19.9,2.3-3.219,4.659-6.415,6.893-9.661a36.035,36.035,0,0,0,2-3.722l-.938-.459A34.925,34.925,0,0,0,190,259.355c-14.1,15.789-27.55,31.88-39.388,48.73a27.333,27.333,0,0,1-4,4.556,6.814,6.814,0,0,1-6.9,1.313c-2.418-.741-3.509-1.672-3.342-3.653a13.118,13.118,0,0,1,1.3-5.041c3.42-6.5,6.806-13.016,10.674-19.362,7.684-12.613,15.608-25.141,23.562-37.658,13.927-21.917,31.1-42.314,50.242-61.78,5.772-5.869,11.678-11.661,17.439-17.535,1.9-1.939,3.9-3.875,5.05-6.592-2.307.28-3.042,1.56-4.041,2.413-12.449,10.62-24.571,21.471-37.286,31.9-20.475,16.794-38.523,35.061-56.832,53.18-9.153,9.058-18.431,18.044-27.448,27.179-3.565,3.611-6.544,7.556-9.852,11.316-1.652,1.877-3.342,3.744-5.2,5.5-1.659,1.564-3.944,1.982-6.524,1.487-2.758-.528-4.057-1.435-3.91-3.581a12.934,12.934,0,0,1,1.528-5.959c4.749-7.7,9.735-15.317,14.8-22.9,3.655-5.472,7.589-10.837,11.349-16.269a3.824,3.824,0,0,0,.7-2.837,17.484,17.484,0,0,0-1.991,1.471c-6.764,6.646-13.453,13.337-20.25,19.962-4.62,4.5-9.348,8.936-14.1,13.352a16.149,16.149,0,0,1-3.459,2.37,6.54,6.54,0,0,1-7.017-.183c-1.979-1.193-2.5-2.439-1.518-4.626a37.528,37.528,0,0,1,2.843-5.045c7.448-11.419,16.492-22.12,25.581-32.8,13.711-16.1,27.009-32.427,41.379-48.185,19.219-21.077,39.309-41.7,58.99-62.531,2.559-2.71,4.936-5.522,7.322-8.326a18.134,18.134,0,0,0,1.557-2.912,18.252,18.252,0,0,0-2.969,1.186c-2.044,1.491-4.072,3-5.979,4.6-17.948,14.98-36.187,29.765-53.694,45.037-13.122,11.45-25.273,23.545-37.894,35.328-8.595,8.022-17.142,16.078-25.922,23.982a153.418,153.418,0,0,0-18.1,19.137,34.194,34.194,0,0,1-3.733,4.317,13.088,13.088,0,0,1-4.169,2.644c-3.732,1.377-7.963-.559-7.683-3.678a15.6,15.6,0,0,1,2.392-7.441,226.483,226.483,0,0,1,14.3-19.073c14.926-17.452,31.555-33.983,48.13-50.535q23.443-23.414,46.992-46.766c4.222-4.19,8.6-8.287,12.917-12.421.721-.69,1.55-1.343.111-2.383a8.637,8.637,0,0,0-1.855.932q-10.753,9.366-21.436,18.779c-13.093,11.478-26.293,22.889-39.25,34.456C105.234,171.709,97,179,89.527,186.716c-13.951,14.4-27.342,29.115-41.016,43.671-3.7,3.942-7.49,7.842-11.431,11.646a10.217,10.217,0,0,1-8.207,2.713c-3.788-.3-5.384-1.764-4.232-4.584a25.171,25.171,0,0,1,3.669-6.5c7.181-8.785,14.426-17.543,21.919-26.175,15.479-17.831,32.927-34.557,50.169-51.4,5.566-5.435,10.7-11.129,16.017-16.711.226-.238.32-.549.1-1.173a21.6,21.6,0,0,0-2.631,1.686q-21.976,19.1-43.878,38.248c-6.588,5.783-13.242,11.542-19.4,17.587-9.37,9.2-18.293,18.661-27.5,27.955a24.138,24.138,0,0,1-5.818,4.61c-3.99,2.084-7.888.665-8.942-2.944a8.11,8.11,0,0,1,1.3-6.916,61.9,61.9,0,0,1,6.52-8.684c7.543-7.955,15.392-15.739,23.068-23.621,8.013-8.228,15.918-16.517,23.953-24.731,5.835-5.965,11.9-11.8,17.7-17.786,12.013-12.413,23.921-24.885,35.848-37.345a10.2,10.2,0,0,0,2.51-3.942,18.671,18.671,0,0,0-2.258,1.376c-12.934,10.72-26.207,21.22-38.673,32.247-19.4,17.162-38.229,34.7-57.37,52.034a86.316,86.316,0,0,1-8.833,6.97,12.84,12.84,0,0,1-5.22,1.925c-4.262.607-6.306-.994-5.445-4.2a17.055,17.055,0,0,1,2.45-5.485c3.978-5.586,7.914-11.208,12.391-16.563C28.55,155.945,42.522,142.2,57.34,129,75.1,113.177,93.313,97.651,111.328,82q9.515-8.272,19-16.561a5.685,5.685,0,0,0,1.911-2.862c-2.3,1.513-4.695,2.947-6.881,4.549-26.58,19.452-51.469,40.109-75.342,61.485q-15,13.433-29.924,26.918c-2.369,2.143-4.451,4.469-6.822,6.61a21.309,21.309,0,0,1-4.337,3.055,6.287,6.287,0,0,1-5.969-.088c-1.957-1.036-3.478-2.388-2.808-4.339a15.914,15.914,0,0,1,2.311-4.48c3.335-4.382,6.709-8.754,10.335-13C27.413,126.2,42.554,109.388,59.372,93.5c9.243-8.732,18.79-17.277,28.151-25.938a30.573,30.573,0,0,0,5.8-6.543l-.694-.562a33.062,33.062,0,0,0-3.158,1.769C79.942,68.993,70.4,75.746,60.96,82.586c-8.618,6.245-17.092,12.607-25.673,18.884-1.717,1.255-3.624,2.358-5.646,3.664a44.4,44.4,0,0,1-3.76-2.38c-1.48-1.165-2.129-2.568-.994-4.123a40.981,40.981,0,0,1,4.281-5.551,120.285,120.285,0,0,1,9.713-8.565C60.807,67.327,83.922,51.093,107.756,35.46c12.658-8.3,25.685-16.279,38.646-24.31a85.608,85.608,0,0,1,8.875-4.418,14.184,14.184,0,0,1,3.532-1.06c2.5-.427,3.73.123,4.54,1.958a7.719,7.719,0,0,1-.613,6.959,25.218,25.218,0,0,1-4.264,5.921c-3.495,3.522-7.252,6.9-11.053,10.239-5.564,4.89-11.286,9.678-16.886,14.545-1.29,1.12-2.358,2.388-3.529,3.587l.57.5c1.986-1.194,3.994-2.369,5.954-3.586,1.976-1.226,3.915-2.487,5.852-3.748,13.769-8.977,27.405-18.077,41.356-26.884,6.529-4.122,13.66-7.69,20.534-11.49a25.016,25.016,0,0,1,2.9-1.351c3.105-1.229,5.227-.748,6.444,1.679,1.965,3.922,1.4,7.617-2.353,10.857-1.5,1.29-3.1,2.513-4.553,3.826a1.951,1.951,0,0,0-.439,2.07c2.027-.853,4.184-1.564,6.052-2.581,7.14-3.892,14.159-7.913,21.28-11.824,3.33-1.829,6.794-3.512,10.194-5.267,1.839-.95,3.655-1.652,5.819-.427,2.455,1.387,3.612,3.236,2.9,5.3a8.484,8.484,0,0,1-1.639,2.955,85.447,85.447,0,0,1-7.771,8.068c-9.061,7.717-18.321,15.3-27.548,22.9q-25.8,21.271-51.641,42.519a50.377,50.377,0,0,0-6.192,6.171,6.865,6.865,0,0,0,3.968-1.866q12.683-9.329,25.256-18.745,31.774-23.852,63.516-47.73a53.612,53.612,0,0,1,7.718-5.055A30.376,30.376,0,0,1,263.2,12.4c3.769-.713,5.659.611,5.726,3.559a28.653,28.653,0,0,1-.5,4.173c-.09.715-.167,1.432-.3,2.627,1.761-.336,3.083-.541,4.368-.841,5.348-1.249,9.84,1.813,8.385,5.918a13.447,13.447,0,0,1-3.1,4.537c-5.622,5.821-11.242,11.648-17.136,17.307-13.551,13.011-27.252,25.934-40.919,38.875-2.925,2.771-6.007,5.445-8.931,8.214a7.435,7.435,0,0,0-2.221,3.615c1.554-1.1,3.187-2.147,4.649-3.316C225.221,87.461,237.168,77.8,249.2,68.209q22.157-17.667,44.457-35.231a49.255,49.255,0,0,1,7.3-4.4,11.375,11.375,0,0,1,3.926-1.127c4.421-.489,7.3,1.711,6.272,5.023a19.607,19.607,0,0,1-3.332,6.252,118.519,118.519,0,0,1-9.871,11.3q-14.6,14.3-29.658,28.331c-16.512,15.367-31.979,31.332-47.16,47.459-11.385,12.095-22.59,24.286-33.844,36.451a5.234,5.234,0,0,0-1.535,3.32c1.087-.781,2.238-1.517,3.252-2.35,10.689-8.78,21.208-17.682,32.061-26.343q35.641-28.443,71.573-56.673c10.248-8.057,20.711-15.961,31.273-23.781a141.451,141.451,0,0,1,13.025-8.261,15.225,15.225,0,0,1,5.462-1.578c2.408-.308,3.628.467,4.523,2.222a4.758,4.758,0,0,1-.7,5.58,34.4,34.4,0,0,1-4.623,4.611c-7.1,5.724-14.519,11.224-21.4,17.092a170.517,170.517,0,0,0-14.177,13.7,245.023,245.023,0,0,1-26.788,24.243c-20.745,16.531-41.714,32.9-62.6,49.331-12.612,9.923-24.921,20.068-36.34,30.792-5.785,5.433-10.83,11.324-16.163,17.033a5.337,5.337,0,0,0-1.371,2.9,23.382,23.382,0,0,0,2.673-1.692c8.92-7.524,17.759-15.1,26.709-22.608q25.138-21.078,50.37-42.092c23.208-19.391,47.809-37.722,73.427-55.244,11.79-8.062,24.29-15.522,36.5-23.229a25.274,25.274,0,0,1,3.914-1.934c2.318-.944,3.514-.738,5.134.822,2.151,2.069,2.459,4.439.912,6.687a41.878,41.878,0,0,1-5.935,7.047C350.165,87.7,343.681,93.411,337.162,99.1c-20.3,17.715-40.851,35.271-60.94,53.126-20.922,18.6-41.06,37.684-59.036,58.026-3.08,3.486-5.9,7.1-8.783,10.689a25.117,25.117,0,0,0-1.737,2.819l.909.476m14.268,71.772c6.665-6.783,15.192-12.584,19.2-20.8a81.362,81.362,0,0,0-19.2,20.8" transform="translate(0 0)" fill="#29e8f9"/>
        </g>
        <g id="Group_601" data-name="Group 601" transform="translate(593 -229.719)" clip-path="url(#clip-path-3)">
          <path id="Path_1626" data-name="Path 1626" d="M207.575,224.235c3.19-2.864,6.5-5.659,9.553-8.6,15.908-15.33,32.922-29.926,50.39-44.226,23.352-19.116,47.184-37.874,71.935-55.946,7.664-5.6,15.62-10.96,23.521-16.365,1.78-1.216,3.886-2.154,5.838-3.226a4.125,4.125,0,0,1,4.9.479,7.06,7.06,0,0,1,3,7.421c-.182.933-.516,1.849-.905,3.207a12.326,12.326,0,0,0,2.925-.579c1.61-.87,3.025-1.947,4.591-2.87a8.541,8.541,0,0,1,8.977.01c2.474,1.441,3.3,3.551,1.445,6.073a55.48,55.48,0,0,1-7.293,7.907c-6.347,5.8-12.932,11.442-19.386,17.172-1.195,1.062-2.168,2.266-3.328,3.352q-6.149,5.761-12.365,11.481c-5.159,4.728-10.558,9.311-15.51,14.16-14.429,14.13-28.692,28.357-42.993,42.562a6.892,6.892,0,0,0-2.071,3.573,13.743,13.743,0,0,0,2.091-1.19c10.17-8.554,20.357-17.094,30.446-25.7,14.712-12.554,29.263-25.218,44.069-37.707,3.776-3.185,8.225-5.909,12.418-8.8a11.64,11.64,0,0,1,2.855-1.38c2.044-.688,3.694-.17,4.278,1.5,1.234,3.53,1.654,7.1-1.553,10.206-3.058,2.96-6.294,5.821-9.578,8.641a452.938,452.938,0,0,0-33.112,31.591q-3.111,3.273-6.134,6.6a1.42,1.42,0,0,0-.167,1.718c1.909-1.351,3.908-2.636,5.712-4.064,10.708-8.47,21.283-17.036,32.09-25.432,4.353-3.382,9.073-6.509,13.83-9.565a43.405,43.405,0,0,1,8.125-4.077c4.268-1.6,7.87.292,7.329,3.96a12.065,12.065,0,0,1-2.874,5.973q-6.366,7.252-13.429,14.145c-8.709,8.5-17.642,16.874-26.452,25.315-.829.794-1.455,1.711-2.588,3.062,3,.24,5.208.489,7.422.57,2.19.08,3.383.9,3.823,2.474.175.631.441,1.25.575,1.884a12.259,12.259,0,0,0,4.242,6.915c3.655,3.151,3.837,4.41.4,7.63-6.779,6.362-13.6,12.716-20.856,18.761-8.019,6.683-16.512,13.038-24.872,19.482a31.652,31.652,0,0,1-5.285,3.234c-5.18,2.559-9.185,1.438-11.132-3-.175-.4-.337-.8-.563-1.343a8.769,8.769,0,0,0-5.653,2.6c-6.26,5.426-12.423,10.916-18.62,16.384-4.254,3.755-8.407,7.58-12.806,11.232a25.872,25.872,0,0,1-5.979,3.581c-3.653,1.62-6.605.41-6.679-2.79a30.621,30.621,0,0,1,1.023-6.716,15.257,15.257,0,0,0,.721-4.427c-1.591,1.194-3.291,2.315-4.754,3.6-6.512,5.694-12.93,11.448-19.432,17.15-3.621,3.175-7.213,6.38-11.058,9.394a54.634,54.634,0,0,1-8.361,5.458c-3.606,1.879-5.993,1.106-7.483-2.018-.721-1.513-1.377-3.045-2.079-4.565-.032-.07-.213-.1-.6-.269a21.036,21.036,0,0,1-1.72,1.616,29.3,29.3,0,0,1-5.188,3.739c-4.244,1.991-8.949.077-9.08-3.726a12.75,12.75,0,0,1,1.388-5.994c2.8-5.638,5.6-11.3,9.006-16.739a289.012,289.012,0,0,1,38.857-49.276c13.575-13.813,26.652-27.909,39.976-41.865,3.33-3.489,6.779-6.911,10.14-10.382a15.381,15.381,0,0,0,1.32-1.792l-.662-.428a48.445,48.445,0,0,0-4.067,3.053c-14.736,13.665-29.735,27.176-44.035,41.1-11.77,11.463-22.879,23.328-33.924,35.207-6.211,6.679-11.673,13.761-17.526,20.636-2.925,3.435-5.738,6.95-9.049,10.162a36.174,36.174,0,0,1-7.506,5.138,7.266,7.266,0,0,1-6.81-.212,3.523,3.523,0,0,1-1.923-4.623,19.138,19.138,0,0,1,2.324-5.515c4.591-6.681,9.4-13.273,14.137-19.9,2.3-3.219,4.659-6.415,6.893-9.661a36.035,36.035,0,0,0,2-3.722l-.938-.459A34.925,34.925,0,0,0,190,259.355c-14.1,15.789-27.55,31.88-39.388,48.73a27.333,27.333,0,0,1-4,4.556,6.814,6.814,0,0,1-6.9,1.313c-2.418-.741-3.509-1.672-3.342-3.653a13.118,13.118,0,0,1,1.3-5.041c3.42-6.5,6.806-13.016,10.674-19.362,7.684-12.613,15.608-25.141,23.562-37.658,13.927-21.917,31.1-42.314,50.242-61.78,5.772-5.869,11.678-11.661,17.439-17.535,1.9-1.939,3.9-3.875,5.05-6.592-2.307.28-3.042,1.56-4.041,2.413-12.449,10.62-24.571,21.471-37.286,31.9-20.475,16.794-38.523,35.061-56.832,53.18-9.153,9.058-18.431,18.044-27.448,27.179-3.565,3.611-6.544,7.556-9.852,11.316-1.652,1.877-3.342,3.744-5.2,5.5-1.659,1.564-3.944,1.982-6.524,1.487-2.758-.528-4.057-1.435-3.91-3.581a12.934,12.934,0,0,1,1.528-5.959c4.749-7.7,9.735-15.317,14.8-22.9,3.655-5.472,7.589-10.837,11.349-16.269a3.824,3.824,0,0,0,.7-2.837,17.484,17.484,0,0,0-1.991,1.471c-6.764,6.646-13.453,13.337-20.25,19.962-4.62,4.5-9.348,8.936-14.1,13.352a16.149,16.149,0,0,1-3.459,2.37,6.54,6.54,0,0,1-7.017-.183c-1.979-1.193-2.5-2.439-1.518-4.626a37.528,37.528,0,0,1,2.843-5.045c7.448-11.419,16.492-22.12,25.581-32.8,13.711-16.1,27.009-32.427,41.379-48.185,19.219-21.077,39.309-41.7,58.99-62.531,2.559-2.71,4.936-5.522,7.322-8.326a18.134,18.134,0,0,0,1.557-2.912,18.252,18.252,0,0,0-2.969,1.186c-2.044,1.491-4.072,3-5.979,4.6-17.948,14.98-36.187,29.765-53.694,45.037-13.122,11.45-25.273,23.545-37.894,35.328-8.595,8.022-17.142,16.078-25.922,23.982a153.418,153.418,0,0,0-18.1,19.137,34.194,34.194,0,0,1-3.733,4.317,13.088,13.088,0,0,1-4.169,2.644c-3.732,1.377-7.963-.559-7.683-3.678a15.6,15.6,0,0,1,2.392-7.441,226.483,226.483,0,0,1,14.3-19.073c14.926-17.452,31.555-33.983,48.13-50.535q23.443-23.414,46.992-46.766c4.222-4.19,8.6-8.287,12.917-12.421.721-.69,1.55-1.343.111-2.383a8.637,8.637,0,0,0-1.855.932q-10.753,9.366-21.436,18.779c-13.093,11.478-26.293,22.889-39.25,34.456C105.234,171.709,97,179,89.527,186.716c-13.951,14.4-27.342,29.115-41.016,43.671-3.7,3.942-7.49,7.842-11.431,11.646a10.217,10.217,0,0,1-8.207,2.713c-3.788-.3-5.384-1.764-4.232-4.584a25.171,25.171,0,0,1,3.669-6.5c7.181-8.785,14.426-17.543,21.919-26.175,15.479-17.831,32.927-34.557,50.169-51.4,5.566-5.435,10.7-11.129,16.017-16.711.226-.238.32-.549.1-1.173a21.6,21.6,0,0,0-2.631,1.686q-21.976,19.1-43.878,38.248c-6.588,5.783-13.242,11.542-19.4,17.587-9.37,9.2-18.293,18.661-27.5,27.955a24.138,24.138,0,0,1-5.818,4.61c-3.99,2.084-7.888.665-8.942-2.944a8.11,8.11,0,0,1,1.3-6.916,61.9,61.9,0,0,1,6.52-8.684c7.543-7.955,15.392-15.739,23.068-23.621,8.013-8.228,15.918-16.517,23.953-24.731,5.835-5.965,11.9-11.8,17.7-17.786,12.013-12.413,23.921-24.885,35.848-37.345a10.2,10.2,0,0,0,2.51-3.942,18.671,18.671,0,0,0-2.258,1.376c-12.934,10.72-26.207,21.22-38.673,32.247-19.4,17.162-38.229,34.7-57.37,52.034a86.316,86.316,0,0,1-8.833,6.97,12.84,12.84,0,0,1-5.22,1.925c-4.262.607-6.306-.994-5.445-4.2a17.055,17.055,0,0,1,2.45-5.485c3.978-5.586,7.914-11.208,12.391-16.563C28.55,155.945,42.522,142.2,57.34,129,75.1,113.177,93.313,97.651,111.328,82q9.515-8.272,19-16.561a5.685,5.685,0,0,0,1.911-2.862c-2.3,1.513-4.695,2.947-6.881,4.549-26.58,19.452-51.469,40.109-75.342,61.485q-15,13.433-29.924,26.918c-2.369,2.143-4.451,4.469-6.822,6.61a21.309,21.309,0,0,1-4.337,3.055,6.287,6.287,0,0,1-5.969-.088c-1.957-1.036-3.478-2.388-2.808-4.339a15.914,15.914,0,0,1,2.311-4.48c3.335-4.382,6.709-8.754,10.335-13C27.413,126.2,42.554,109.388,59.372,93.5c9.243-8.732,18.79-17.277,28.151-25.938a30.573,30.573,0,0,0,5.8-6.543l-.694-.562a33.062,33.062,0,0,0-3.158,1.769C79.942,68.993,70.4,75.746,60.96,82.586c-8.618,6.245-17.092,12.607-25.673,18.884-1.717,1.255-3.624,2.358-5.646,3.664a44.4,44.4,0,0,1-3.76-2.38c-1.48-1.165-2.129-2.568-.994-4.123a40.981,40.981,0,0,1,4.281-5.551,120.285,120.285,0,0,1,9.713-8.565C60.807,67.327,83.922,51.093,107.756,35.46c12.658-8.3,25.685-16.279,38.646-24.31a85.608,85.608,0,0,1,8.875-4.418,14.184,14.184,0,0,1,3.532-1.06c2.5-.427,3.73.123,4.54,1.958a7.719,7.719,0,0,1-.613,6.959,25.218,25.218,0,0,1-4.264,5.921c-3.495,3.522-7.252,6.9-11.053,10.239-5.564,4.89-11.286,9.678-16.886,14.545-1.29,1.12-2.358,2.388-3.529,3.587l.57.5c1.986-1.194,3.994-2.369,5.954-3.586,1.976-1.226,3.915-2.487,5.852-3.748,13.769-8.977,27.405-18.077,41.356-26.884,6.529-4.122,13.66-7.69,20.534-11.49a25.016,25.016,0,0,1,2.9-1.351c3.105-1.229,5.227-.748,6.444,1.679,1.965,3.922,1.4,7.617-2.353,10.857-1.5,1.29-3.1,2.513-4.553,3.826a1.951,1.951,0,0,0-.439,2.07c2.027-.853,4.184-1.564,6.052-2.581,7.14-3.892,14.159-7.913,21.28-11.824,3.33-1.829,6.794-3.512,10.194-5.267,1.839-.95,3.655-1.652,5.819-.427,2.455,1.387,3.612,3.236,2.9,5.3a8.484,8.484,0,0,1-1.639,2.955,85.447,85.447,0,0,1-7.771,8.068c-9.061,7.717-18.321,15.3-27.548,22.9q-25.8,21.271-51.641,42.519a50.377,50.377,0,0,0-6.192,6.171,6.865,6.865,0,0,0,3.968-1.866q12.683-9.329,25.256-18.745,31.774-23.852,63.516-47.73a53.612,53.612,0,0,1,7.718-5.055A30.376,30.376,0,0,1,263.2,12.4c3.769-.713,5.659.611,5.726,3.559a28.653,28.653,0,0,1-.5,4.173c-.09.715-.167,1.432-.3,2.627,1.761-.336,3.083-.541,4.368-.841,5.348-1.249,9.84,1.813,8.385,5.918a13.447,13.447,0,0,1-3.1,4.537c-5.622,5.821-11.242,11.648-17.136,17.307-13.551,13.011-27.252,25.934-40.919,38.875-2.925,2.771-6.007,5.445-8.931,8.214a7.435,7.435,0,0,0-2.221,3.615c1.554-1.1,3.187-2.147,4.649-3.316C225.221,87.461,237.168,77.8,249.2,68.209q22.157-17.667,44.457-35.231a49.255,49.255,0,0,1,7.3-4.4,11.375,11.375,0,0,1,3.926-1.127c4.421-.489,7.3,1.711,6.272,5.023a19.607,19.607,0,0,1-3.332,6.252,118.519,118.519,0,0,1-9.871,11.3q-14.6,14.3-29.658,28.331c-16.512,15.367-31.979,31.332-47.16,47.459-11.385,12.095-22.59,24.286-33.844,36.451a5.234,5.234,0,0,0-1.535,3.32c1.087-.781,2.238-1.517,3.252-2.35,10.689-8.78,21.208-17.682,32.061-26.343q35.641-28.443,71.573-56.673c10.248-8.057,20.711-15.961,31.273-23.781a141.451,141.451,0,0,1,13.025-8.261,15.225,15.225,0,0,1,5.462-1.578c2.408-.308,3.628.467,4.523,2.222a4.758,4.758,0,0,1-.7,5.58,34.4,34.4,0,0,1-4.623,4.611c-7.1,5.724-14.519,11.224-21.4,17.092a170.517,170.517,0,0,0-14.177,13.7,245.023,245.023,0,0,1-26.788,24.243c-20.745,16.531-41.714,32.9-62.6,49.331-12.612,9.923-24.921,20.068-36.34,30.792-5.785,5.433-10.83,11.324-16.163,17.033a5.337,5.337,0,0,0-1.371,2.9,23.382,23.382,0,0,0,2.673-1.692c8.92-7.524,17.759-15.1,26.709-22.608q25.138-21.078,50.37-42.092c23.208-19.391,47.809-37.722,73.427-55.244,11.79-8.062,24.29-15.522,36.5-23.229a25.274,25.274,0,0,1,3.914-1.934c2.318-.944,3.514-.738,5.134.822,2.151,2.069,2.459,4.439.912,6.687a41.878,41.878,0,0,1-5.935,7.047C350.165,87.7,343.681,93.411,337.162,99.1c-20.3,17.715-40.851,35.271-60.94,53.126-20.922,18.6-41.06,37.684-59.036,58.026-3.08,3.486-5.9,7.1-8.783,10.689a25.117,25.117,0,0,0-1.737,2.819l.909.476m14.268,71.772c6.665-6.783,15.192-12.584,19.2-20.8a81.362,81.362,0,0,0-19.2,20.8" transform="translate(0 0)" fill="#29e8f9"/>
        </g>
      </g>
    </g>
  </g>
</svg>
