<svg xmlns="http://www.w3.org/2000/svg" xmlns:xlink="http://www.w3.org/1999/xlink" width="1168" height="8.431" viewBox="0 0 1168 8.431">
  <defs>
    <clipPath id="clip-path">
      <rect id="Rectangle_314" data-name="Rectangle 314" width="1168" height="8.431" fill="#3d3d3d"/>
    </clipPath>
  </defs>
  <g id="Group_554" data-name="Group 554" transform="translate(0 0)">
    <g id="Group_553" data-name="Group 553" transform="translate(0 0)" clip-path="url(#clip-path)">
      <path id="Path_1590" data-name="Path 1590" d="M377.8,5.067c-8.322,2.45-19.251,2.324-30.4.227H304.944c-5.612,1.595-16.092,1.587-25.888,1.03a216.74,216.74,0,0,0-27.4-.123c-6.655.432-14.425-.292-21.694-.282-6.774.009-13.549.457-20.309.436-7.979-.025-16.047-.217-23.86-.6-2.985-.147-5.368-1.032-8.024-1.58,2.795-.659,5.411-1.821,8.414-1.885,10.411-.221,20.968.021,31.448-.063,15.256-.123,30.487-.487,45.743-.534,9.767-.031,19.763.079,29.27.575,8.347.436,14.018.117,17.774-1.68,9.7.528,19.194,1.17,28.867,1.507,3.533.123,7.486-.477,13.507-.911C365,2.66,379.755,4.047,396.971,2.2c8.961-.963,19.239-1.787,29.239-.189,1.133.182,3.613-.217,5.485-.232,8.12-.069,16.262-.2,24.364-.112,8.678.091,18.013.047,22.373,2.984-11.7.481-22.911,1.523-35.067.486-7.827-.667-14.366-.974-22.95.463-13.2,2.21-28.146.958-42.61-.53" transform="translate(185.915 -0.291)" fill="#3d3d3d"/>
      <path id="Path_1591" data-name="Path 1591" d="M661.984,7l-8.247.176c-.053.106-.1.212-.156.317l9.394.674c-11.256,1.935-23.6,1.374-42.3-1.526-4.2.766-7.829,1.969-10.89,1.887-10.452-.279-20.691-1.024-31.039-1.559-1.813-.094-3.771-.076-5.634-.036-14,.308-27.774.9-41.655-.649-4.924-.549-12.034.225-18.026.086-8.218-.19-16.444-.567-24.409-1.1-2.474-.165-4.108-1.091-6.127-1.669,2.633-.457,5.043-1.044,7.942-1.347,11.584-1.212,23.077.134,34.583.137,16.53,0,32.694,1.6,48.13,1.394,14.106-.189,26.557.757,39.8.962,3.766.058,7.635-.527,11.539-.715,14.319-.693,25.2,1.437,37.095,2.966" transform="translate(505.023 -0.87)" fill="#3d3d3d"/>
      <path id="Path_1592" data-name="Path 1592" d="M183.611,4.839c-2.24.827-3.5,1.855-6.182,2.183-11.406,1.4-24.808.833-32.13-1.132-15.9,2.76-36.315,2.2-45.192-1.279,8.9-2.024,19.051-.994,28.93-.763,4.388.1,8.879.033,13.3-.051,3.349-.063,6.633-.355,9.98-.4,13.4-.191,27.06,1,40.25-.873,3.654-.52,9.924.082,15,.157q14.469.215,28.944.413c2.367.031,5.624-.236,6.954.054,3.543.774,6.258,1.776,9.3,2.688-3.1.557-6.262,1.61-9.3,1.589-15.669-.107-31.385-.347-46.915-.856-5.131-.168-9.75-1.281-12.934-1.727" transform="translate(104.694 -1.149)" fill="#3d3d3d"/>
      <path id="Path_1593" data-name="Path 1593" d="M413.6,3.521c-.043-1.737,4.777-2.295,10.495-2.354,21.866-.227,44.339-1.2,65.44-.285,17.895.774,35.665-.55,52.776.82,4.173.334,7.594,1.239,11.36,1.881-3.66.6-7.426,1.753-10.959,1.711q-34.52-.411-69.047-.631c-6.876-.047-12.9-.52-20.1.224-13.942,1.441-27.036-.149-39.932-1.389Z" transform="translate(432.55 -0.247)" fill="#3d3d3d"/>
      <path id="Path_1594" data-name="Path 1594" d="M164.942,6.921A46.554,46.554,0,0,1,157.783,8c-9.705-.012-19.4-.27-29.112-.362-2.107-.02-4.263.272-6.4.42-12.637.873-24.7,1.269-37.508-.357-5.063-.643-13.144.33-19.709.184-8.807-.2-17.518-.719-26.164-1.215-1.371-.078-3.343-.843-2.977-1.133a12,12,0,0,1,4.548-1.111,59.922,59.922,0,0,1,8.985-.281C65.871,5.424,82.37,4.274,98.8,4.4c4.667.036,9.259.474,13.942.609a79.727,79.727,0,0,0,10.626-.042c15.258-2,27.7.032,40.843,1.149l.734.8" transform="translate(37.515 -2.019)" fill="#3d3d3d"/>
      <path id="Path_1595" data-name="Path 1595" d="M459.045,3.25c-9.413,2.254-20.387,1.487-31.307,1.025a66.035,66.035,0,0,0-9.308.073C405.3,5.909,392.723,6.2,380.17,4c-2.88-.506-6.645-.707-10-1.049l.3.072C369.38.536,374.178-.37,383.883.134,390.252.464,397.03.3,403.613.4c7.361.111,14.734.22,22.062.419,8.241.224,16.549.428,24.6.886,3.232.184,5.849,1.022,8.744,1.564l.029-.022" transform="translate(387.133 0)" fill="#3d3d3d"/>
      <path id="Path_1596" data-name="Path 1596" d="M0,6.106C12.226,4.719,24.026,5.62,26.79,8.035,41.4,6.356,56.2,4.982,71.69,7.332c2.658.4,4.059,1.306,6.041,1.978-3.869.573-8,1.713-11.557,1.613-11.162-.316-22.081-1.129-33.151-1.679-2.711-.135-5.706.094-8.455-.017S19.223,8.8,16.6,8.547c-.653-.063-1.391-.372-1.645-.342C5.507,9.332,4.057,7.287,0,6.106" transform="translate(0 -2.709)" fill="#3d3d3d"/>
      <path id="Path_1597" data-name="Path 1597" d="M392.379,4.185c4.593,1.338-.544,1.745-3.8,2.181-9.221,1.231-32.308.371-39.4-1.561-.994-.271,1.379-1.888,2.287-1.893,13.973-.081,28.817-1.49,41.217,1.343.006,0-.3-.069-.3-.069" transform="translate(364.924 -1.238)" fill="#3d3d3d"/>
      <path id="Path_1598" data-name="Path 1598" d="M353.281,5.984c-8.38-.771-16.87-1.481-25.061-2.359-1.931-.207-2.866-.977-4.259-1.488a42.241,42.241,0,0,1,6.612-.95c11.717.214,23.419.539,35.023.987,1.569.061,3.595,1.034,3.521,1.569-.07.512-2.193,1.262-4.139,1.448-3.353.32-7.267.282-10.943.394l-.753.4" transform="translate(338.805 -0.589)" fill="#3d3d3d"/>
    </g>
  </g>
</svg>
