<svg id="Group_559" data-name="Group 559" xmlns="http://www.w3.org/2000/svg" xmlns:xlink="http://www.w3.org/1999/xlink" width="460.574" height="6.439" viewBox="0 0 460.574 6.439">
  <defs>
    <clipPath id="clip-path">
      <rect id="Rectangle_315" data-name="Rectangle 315" width="460.574" height="6.439" fill="#353535"/>
    </clipPath>
  </defs>
  <g id="Group_557" data-name="Group 557" transform="translate(0 0)" clip-path="url(#clip-path)">
    <path id="Path_1599" data-name="Path 1599" d="M0,1.909l13.177.543.012.238-11.708.3q-.034.457-.067.915c5.35.273,10.687.707,16.055.78,8.229.113,17-.724,24.59.124,9.437,1.054,18.561.483,27.772.664,12.836.252,25.724.122,38.589.12,9.535,0,19.271-.543,28.552.038,10.028.627,19.783-.018,29.649.14,11.821.19,23.666.167,35.5.221,14.492.067,28.995.009,43.473.216,9.511.136,19.027.064,28.535.228a16.244,16.244,0,0,0,4.483-.933c2.752-.8,4.9-.887,6.061.578a251.337,251.337,0,0,1,29.266-.668c3.573.122,7.266-.454,10.932-.544,6.295-.155,12.609-.184,18.917-.25a6.251,6.251,0,0,1,1.879.165c1.9,1.93,5.75.954,8.84.878,7.6-.186,15.169-.622,22.764-.671,13.616-.089,27.244-.014,40.861.1,3.991.032,7.991.646,11.939.578,7.1-.121,14.283-.346,21.173-.964,2.673-.24,4.949-1.164,8.168-.717a1.523,1.523,0,0,0,1.161-.894c-5.809-.1-11.618-.274-17.427-.272-7.982,0-15.97.237-23.945.18-4.414-.032-8.792-.577-13.218-.676-9.573-.214-19.172-.244-28.748-.442-4.651-.1-9.262-.491-13.912-.584-4.534-.09-9.1.095-13.641.035-2.207-.029-4.37-.412-6.588-.51-9.322-.411-18.679-.14-28.12-.656-8.051-.441-16.721.821-25.113,1.34-1.573.1-3.136.36-4.69.343-15.549-.164-31.1-.381-46.644-.557-5.266-.059-10.3.013-15.209,1.174-2.238.529-6.044.156-9.1.04-6.384-.243-12.74-.6-19.113-.888Q179.377.9,163.644.207a302.366,302.366,0,0,0-34.644.8c-6.308.443-12.96.195-19.455.168-5.934-.025-11.865-.221-17.8-.241C89.2.924,86.312.673,84.533,1.883a14.8,14.8,0,0,1-3.817.109c-14.9-.557-29.771-1.28-44.7-1.661C25.676.067,15.254.216,4.879.323,3.484.338,2.145,1.184,0,1.909" transform="translate(0 0)" fill="#353535"/>
  </g>
</svg>
