<svg xmlns="http://www.w3.org/2000/svg" xmlns:xlink="http://www.w3.org/1999/xlink" width="1367.003" height="483.986" viewBox="0 0 1367.003 483.986">
  <defs>
    <clipPath id="clip-path">
      <path id="Intersection_2" data-name="Intersection 2" d="M-666.527-16932.205c-10.019-7.477-17.848-8.3-22.064,5.412a359.263,359.263,0,0,0-106.551-6.256c-13.007,1.145-26.455-4.242-39.8-5.09-22.916-1.451-45.907-1.727-68.871-2.334-2.346-.061-6.37.311-6.838,1.547-6.93,18.063-20.937,8.926-32.188,8.219-27.653-1.742-55.226-5.824-82.879-6.287-46.275-.775-92.59-.213-138.87.7v-442.371c14.453-1.045,28.824-5.271,43.333-6.105,34.853-2.006,69.806-2.285,104.668-4.133,16.931-.906,33.721-4.605,50.648-5.471,8.747-.451,17.52-.176,26.3.1,7.79.244,15.589.49,23.366.229,8.035-.271,15.908-3.859,23.987-4.777,33.935-3.84,68-1.3,102.374-6.139,29.308-4.123,60.876,7.691,91.429,12.541,5.728.912,11.417,3.367,17.075,3.215,56.612-1.529,113.21-3.568,169.817-5.207,19.172-.555,37.505.117,55.371,10.988,8.149,4.949,22,1.463,33.14.375,23.24-2.275,46.383-5.584,69.584-8.311q57.254-6.724,114.538-13.229c42.473-4.8,84.159-.109,126.121,7.471,22.969,4.143,47.187,1.818,70.833,1.568,21.606-.232,43.194-2.066,64.795-2.254,9.276-.074,19.792-2.426,26.268,8.9,1.3,2.275,9.167,1.471,13.894,1.018,46.17-4.439,92.256-10,138.459-13.756v461.334c-2.264.447-4.5.98-6.715,1.617-23.489,6.746-46.44,6.379-69.326,6.012-10.6-.166-21.173-.336-31.781.2-46.737,2.355-93.658,1.141-140.491,1.123-34.718-.018-70.165-5.086-103.956.35-22.375,3.6-44.378,2.721-66.329,1.844-13.863-.551-27.7-1.105-41.608-.529-43.045,1.779-86.165,1.561-129.249,2.07-52.762.625-105.564.088-158.274,2.02-34.626,1.271-69.273.6-103.89,2.133-.114,0-.232,0-.345,0C-655.8-16923.467-661.664-16928.578-666.527-16932.205Z" transform="translate(1164.587 20814)" fill="#1e1e1e" stroke="rgba(0,0,0,0)" stroke-width="1"/>
    </clipPath>
    <clipPath id="clip-path-2">
      <rect id="Rectangle_322" data-name="Rectangle 322" width="403.557" height="416.498" fill="#2a2828"/>
    </clipPath>
    <clipPath id="clip-path-3">
      <rect id="Rectangle_327" data-name="Rectangle 327" width="403.557" height="416.498" fill="#e8137f"/>
    </clipPath>
  </defs>
  <g id="Group_634" data-name="Group 634" transform="translate(0.5 -3238.047)">
    <path id="Intersection_1" data-name="Intersection 1" d="M-666.527-16932.205c-10.019-7.477-17.848-8.3-22.064,5.412a359.263,359.263,0,0,0-106.551-6.256c-13.007,1.145-26.455-4.242-39.8-5.09-22.916-1.451-45.907-1.727-68.871-2.334-2.346-.061-6.37.311-6.838,1.547-6.93,18.063-20.937,8.926-32.188,8.219-27.653-1.742-55.226-5.824-82.879-6.287-46.275-.775-92.59-.213-138.87.7v-442.371c14.453-1.045,28.824-5.271,43.333-6.105,34.853-2.006,69.806-2.285,104.668-4.133,16.931-.906,33.721-4.605,50.648-5.471,8.747-.451,17.52-.176,26.3.1,7.79.244,15.589.49,23.366.229,8.035-.271,15.908-3.859,23.987-4.777,33.935-3.84,68-1.3,102.374-6.139,29.308-4.123,60.876,7.691,91.429,12.541,5.728.912,11.417,3.367,17.075,3.215,56.612-1.529,113.21-3.568,169.817-5.207,19.172-.555,37.505.117,55.371,10.988,8.149,4.949,22,1.463,33.14.375,23.24-2.275,46.383-5.584,69.584-8.311q57.254-6.724,114.538-13.229c42.473-4.8,84.159-.109,126.121,7.471,22.969,4.143,47.187,1.818,70.833,1.568,21.606-.232,43.194-2.066,64.795-2.254,9.276-.074,19.792-2.426,26.268,8.9,1.3,2.275,9.167,1.471,13.894,1.018,46.17-4.439,92.256-10,138.459-13.756v461.334c-2.264.447-4.5.98-6.715,1.617-23.489,6.746-46.44,6.379-69.326,6.012-10.6-.166-21.173-.336-31.781.2-46.737,2.355-93.658,1.141-140.491,1.123-34.718-.018-70.165-5.086-103.956.35-22.375,3.6-44.378,2.721-66.329,1.844-13.863-.551-27.7-1.105-41.608-.529-43.045,1.779-86.165,1.561-129.249,2.07-52.762.625-105.564.088-158.274,2.02-34.626,1.271-69.273.6-103.89,2.133-.114,0-.232,0-.345,0C-655.8-16923.467-661.664-16928.578-666.527-16932.205Z" transform="translate(1164.588 20645)" fill="#1e1e1e" stroke="rgba(0,0,0,0)" stroke-width="1"/>
    <g id="Mask_Group_133" data-name="Mask Group 133" transform="translate(0.001 -169)" clip-path="url(#clip-path)">
      <g id="Group_579" data-name="Group 579" transform="translate(-54.084 3620.5)">
        <g id="Group_578" data-name="Group 578" clip-path="url(#clip-path-2)">
          <path id="Path_1611" data-name="Path 1611" d="M207.575,293.982c3.19-3.755,6.5-7.419,9.553-11.281,15.908-20.1,32.922-39.235,50.39-57.982,23.352-25.062,47.184-49.655,71.935-73.347,7.664-7.337,15.62-14.37,23.521-21.455a68.32,68.32,0,0,1,5.838-4.23c1.834-1.319,3.407-.875,4.9.628a10.766,10.766,0,0,1,3,9.73c-.182,1.223-.516,2.425-.905,4.2,1.274-.31,2.27-.294,2.925-.759,1.61-1.14,3.025-2.552,4.591-3.762a6.864,6.864,0,0,1,8.977.014c2.474,1.889,3.3,4.655,1.445,7.962a69.224,69.224,0,0,1-7.293,10.366c-6.347,7.6-12.932,15-19.386,22.513-1.195,1.392-2.168,2.971-3.328,4.4q-6.149,7.552-12.365,15.052c-5.159,6.2-10.558,12.207-15.51,18.564-14.429,18.525-28.692,37.177-42.993,55.8a9.95,9.95,0,0,0-2.071,4.684,13.375,13.375,0,0,0,2.091-1.56c10.17-11.215,20.357-22.411,30.446-33.7,14.712-16.459,29.263-33.061,44.069-49.435,3.776-4.176,8.225-7.747,12.418-11.538a10.771,10.771,0,0,1,2.855-1.809c2.044-.9,3.694-.223,4.278,1.965,1.234,4.628,1.654,9.311-1.553,13.381-3.058,3.881-6.294,7.632-9.578,11.329-11.758,13.235-22.721,27.1-33.112,41.418q-3.111,4.29-6.134,8.647a2.312,2.312,0,0,0-.167,2.253c1.909-1.771,3.908-3.456,5.712-5.328,10.708-11.1,21.283-22.335,32.09-33.342,4.353-4.434,9.073-8.533,13.83-12.54a40.582,40.582,0,0,1,8.125-5.345c4.268-2.1,7.87.383,7.329,5.191a18.24,18.24,0,0,1-2.874,7.831Q394.263,222,387.2,231.041c-8.709,11.149-17.642,22.122-26.452,33.189-.829,1.041-1.455,2.243-2.588,4.014,3,.315,5.208.641,7.422.747a3.681,3.681,0,0,1,3.823,3.243c.175.827.441,1.639.575,2.471a17.461,17.461,0,0,0,4.242,9.066c3.655,4.131,3.837,5.782.4,10-6.779,8.341-13.6,16.672-20.856,24.6-8.019,8.761-16.512,17.094-24.872,25.542a31.594,31.594,0,0,1-5.285,4.24c-5.18,3.355-9.185,1.885-11.132-3.936-.175-.526-.337-1.055-.563-1.761-2.583.143-4.206,1.77-5.653,3.413-6.26,7.114-12.423,14.312-18.62,21.48-4.254,4.923-8.407,9.937-12.806,14.725a25.643,25.643,0,0,1-5.979,4.695c-3.653,2.124-6.605.538-6.679-3.658a51.824,51.824,0,0,1,1.023-8.806,25.731,25.731,0,0,0,.721-5.8c-1.591,1.565-3.291,3.036-4.754,4.713-6.512,7.465-12.93,15.009-19.432,22.484-3.621,4.162-7.213,8.365-11.058,12.316a55.819,55.819,0,0,1-8.361,7.155c-3.606,2.464-5.993,1.45-7.483-2.646-.721-1.984-1.377-3.992-2.079-5.984-.032-.092-.213-.131-.6-.352a24.809,24.809,0,0,1-1.72,2.118c-1.683,1.69-3.2,3.68-5.188,4.9-4.244,2.61-8.949.1-9.08-4.885a21.1,21.1,0,0,1,1.388-7.858c2.8-7.392,5.6-14.821,9.006-21.945a382.081,382.081,0,0,1,38.857-64.6c13.575-18.11,26.652-36.59,39.976-54.887,3.33-4.574,6.779-9.061,10.14-13.611a20.816,20.816,0,0,0,1.32-2.35l-.662-.562a52.211,52.211,0,0,0-4.067,4c-14.736,17.916-29.735,35.629-44.035,53.887-11.77,15.028-22.879,30.584-33.924,46.158-6.211,8.756-11.673,18.042-17.526,27.055-2.925,4.5-5.738,9.112-9.049,13.323a37.649,37.649,0,0,1-7.506,6.736c-2.12,1.552-4.642,1.138-6.81-.277-2.224-1.451-2.438-3.779-1.923-6.061a29.77,29.77,0,0,1,2.324-7.23c4.591-8.76,9.4-17.4,14.137-26.087,2.3-4.22,4.659-8.411,6.893-12.666.813-1.55,1.341-3.25,2-4.88l-.938-.6a39.409,39.409,0,0,0-3.769,4.16c-14.1,20.7-27.55,41.8-39.388,63.887a34.759,34.759,0,0,1-4,5.972,5.649,5.649,0,0,1-6.9,1.722c-2.418-.972-3.509-2.192-3.342-4.79a21.591,21.591,0,0,1,1.3-6.609c3.42-8.516,6.806-17.065,10.674-25.384,7.684-16.536,15.608-32.961,23.562-49.371,13.927-28.734,31.1-55.476,50.242-81,5.772-7.694,11.678-15.289,17.439-22.99,1.9-2.542,3.9-5.081,5.05-8.642-2.307.368-3.042,2.045-4.041,3.163-12.449,13.924-24.571,28.149-37.286,41.824-20.475,22.018-38.523,45.966-56.832,69.721-9.153,11.875-18.431,23.657-27.448,35.632-3.565,4.734-6.544,9.906-9.852,14.836-1.652,2.46-3.342,4.909-5.2,7.211a5.957,5.957,0,0,1-6.524,1.95c-2.758-.693-4.057-1.882-3.91-4.695a21.257,21.257,0,0,1,1.528-7.812c4.749-10.1,9.735-20.082,14.8-30.026,3.655-7.174,7.589-14.208,11.349-21.329a6.238,6.238,0,0,0,.7-3.72,18.726,18.726,0,0,0-1.991,1.928c-6.764,8.714-13.453,17.485-20.25,26.172-4.62,5.9-9.348,11.715-14.1,17.506a16.81,16.81,0,0,1-3.459,3.107,5.272,5.272,0,0,1-7.017-.24c-1.979-1.564-2.5-3.2-1.518-6.064a54.979,54.979,0,0,1,2.843-6.614c7.448-14.97,16.492-29,25.581-43,13.711-21.111,27.009-42.513,41.379-63.172,19.219-27.633,39.309-54.664,58.99-81.981,2.559-3.553,4.936-7.24,7.322-10.916a26.82,26.82,0,0,0,1.557-3.818,16.135,16.135,0,0,0-2.969,1.555c-2.044,1.955-4.072,3.939-5.979,6.025-17.948,19.639-36.187,39.024-53.694,59.046-13.122,15.011-25.273,30.868-37.894,46.316-8.595,10.517-17.142,21.079-25.922,31.441a189.571,189.571,0,0,0-18.1,25.09,43.718,43.718,0,0,1-3.733,5.659,13.25,13.25,0,0,1-4.169,3.466c-3.732,1.805-7.963-.733-7.683-4.822a25.1,25.1,0,0,1,2.392-9.755c4.46-8.5,9.059-16.973,14.3-25.006,14.926-22.881,31.555-44.554,48.13-66.254q23.443-30.7,46.992-61.312c4.222-5.493,8.6-10.864,12.917-16.284.721-.905,1.55-1.761.111-3.124a8.08,8.08,0,0,0-1.855,1.222q-10.753,12.279-21.436,24.62c-13.093,15.049-26.293,30.009-39.25,45.173-8.176,9.568-16.413,19.132-23.883,29.243-13.951,18.879-27.342,38.171-41.016,57.254-3.7,5.168-7.49,10.281-11.431,15.268a8.861,8.861,0,0,1-8.207,3.556c-3.788-.388-5.384-2.312-4.232-6.01a36.829,36.829,0,0,1,3.669-8.527c7.181-11.518,14.426-23,21.919-34.317,15.479-23.378,32.927-45.306,50.169-67.385,5.566-7.126,10.7-14.591,16.017-21.909a1.671,1.671,0,0,0,.1-1.538,21.913,21.913,0,0,0-2.631,2.21q-21.976,25.041-43.878,50.145c-6.588,7.582-13.242,15.132-19.4,23.058-9.37,12.061-18.293,24.465-27.5,36.65a26.589,26.589,0,0,1-5.818,6.044c-3.99,2.733-7.888.871-8.942-3.859a13.374,13.374,0,0,1,1.3-9.068,83.241,83.241,0,0,1,6.52-11.385c7.543-10.429,15.392-20.635,23.068-30.968,8.013-10.788,15.918-21.654,23.953-32.423,5.835-7.82,11.9-15.469,17.7-23.318Q98.9,163.86,116.73,139.31a14.389,14.389,0,0,0,2.51-5.168,18.6,18.6,0,0,0-2.258,1.8C104.048,150,90.774,163.767,78.309,178.223c-19.4,22.5-38.229,45.493-57.37,68.219a94.89,94.89,0,0,1-8.833,9.137,11.152,11.152,0,0,1-5.22,2.523c-4.262.8-6.306-1.3-5.445-5.51a26.245,26.245,0,0,1,2.45-7.191c3.978-7.324,7.914-14.695,12.391-21.715A487.217,487.217,0,0,1,57.34,169.123c17.756-20.744,35.973-41.1,53.987-61.624q9.515-10.845,19-21.712a7.89,7.89,0,0,0,1.911-3.752c-2.3,1.984-4.695,3.864-6.881,5.964a1097.566,1097.566,0,0,0-75.342,80.61q-15,17.611-29.924,35.29c-2.369,2.809-4.451,5.858-6.822,8.666a22.415,22.415,0,0,1-4.337,4.005,5,5,0,0,1-5.969-.116C1.012,215.1-.509,213.324.161,210.767a23.787,23.787,0,0,1,2.311-5.874c3.335-5.744,6.709-11.477,10.335-17.041,14.606-22.4,29.747-44.44,46.565-65.268,9.243-11.448,18.79-22.651,28.151-34.006A38.721,38.721,0,0,0,93.323,80l-.694-.737a31.994,31.994,0,0,0-3.158,2.319C79.942,90.453,70.4,99.306,60.96,108.274c-8.618,8.188-17.092,16.529-25.673,24.758-1.717,1.645-3.624,3.092-5.646,4.8a44.865,44.865,0,0,1-3.76-3.121c-1.48-1.528-2.129-3.367-.994-5.406a54.6,54.6,0,0,1,4.281-7.278A138.271,138.271,0,0,1,38.88,110.8C60.807,88.268,83.922,66.985,107.756,46.49c12.658-10.885,25.685-21.343,38.646-31.872a79.8,79.8,0,0,1,8.875-5.792,11.826,11.826,0,0,1,3.532-1.39c2.5-.56,3.73.162,4.54,2.568a12.907,12.907,0,0,1-.613,9.124,34.369,34.369,0,0,1-4.264,7.763c-3.495,4.618-7.252,9.047-11.053,13.424C141.855,46.725,136.133,53,130.533,59.383c-1.29,1.468-2.358,3.131-3.529,4.7l.57.653c1.986-1.565,3.994-3.105,5.954-4.7,1.976-1.608,3.915-3.26,5.852-4.914,13.769-11.77,27.405-23.7,41.356-35.246,6.529-5.4,13.66-10.082,20.534-15.064a22.884,22.884,0,0,1,2.9-1.771c3.105-1.611,5.227-.98,6.444,2.2,1.965,5.142,1.4,9.986-2.353,14.234-1.5,1.691-3.1,3.294-4.553,5.016a3.135,3.135,0,0,0-.439,2.714,60.343,60.343,0,0,0,6.052-3.384c7.14-5.1,14.159-10.374,21.28-15.5,3.33-2.4,6.794-4.6,10.194-6.9,1.839-1.246,3.655-2.166,5.819-.56,2.455,1.819,3.612,4.242,2.9,6.946a12.452,12.452,0,0,1-1.639,3.874A104.833,104.833,0,0,1,240.1,22.255c-9.061,10.117-18.321,20.058-27.548,30.027q-25.8,27.887-51.641,55.745a60.813,60.813,0,0,0-6.192,8.091c1.807-.111,2.877-1.394,3.968-2.447Q171.371,101.44,183.945,89.1q31.774-31.271,63.516-62.577a54.839,54.839,0,0,1,7.718-6.628A25.947,25.947,0,0,1,263.2,16.26c3.769-.934,5.659.8,5.726,4.666a48.78,48.78,0,0,1-.5,5.471c-.09.938-.167,1.877-.3,3.444,1.761-.441,3.083-.71,4.368-1.1,5.348-1.637,9.84,2.377,8.385,7.759a18.625,18.625,0,0,1-3.1,5.949c-5.622,7.631-11.242,15.271-17.136,22.69-13.551,17.058-27.252,34-40.919,50.967-2.925,3.633-6.007,7.138-8.931,10.769a10.574,10.574,0,0,0-2.221,4.739c1.554-1.445,3.187-2.814,4.649-4.347,12.011-12.6,23.958-25.26,35.991-37.838q22.157-23.162,44.457-46.189a48.884,48.884,0,0,1,7.3-5.763A9.443,9.443,0,0,1,304.882,36c4.421-.641,7.3,2.243,6.272,6.585a29.073,29.073,0,0,1-3.332,8.2,150.98,150.98,0,0,1-9.871,14.815q-14.6,18.752-29.658,37.143c-16.512,20.146-31.979,41.077-47.16,62.221-11.385,15.857-22.59,31.84-33.844,47.788a7.925,7.925,0,0,0-1.535,4.353c1.087-1.024,2.238-1.989,3.252-3.082,10.689-11.511,21.208-23.182,32.061-34.537q35.641-37.29,71.573-74.3C302.887,94.617,313.35,84.254,323.912,74a142.957,142.957,0,0,1,13.025-10.83A12.659,12.659,0,0,1,342.4,61.1c2.408-.4,3.628.613,4.523,2.913a7.777,7.777,0,0,1-.7,7.315,41.546,41.546,0,0,1-4.623,6.046c-7.1,7.5-14.519,14.715-21.4,22.408a203.373,203.373,0,0,0-14.177,17.965,284.63,284.63,0,0,1-26.788,31.783c-20.745,21.673-41.714,43.133-62.6,64.675-12.612,13.01-24.921,26.31-36.34,40.37-5.785,7.123-10.83,14.846-16.163,22.331a8.06,8.06,0,0,0-1.371,3.8,23.622,23.622,0,0,0,2.673-2.219c8.92-9.864,17.759-19.8,26.709-29.639q25.138-27.634,50.37-55.185c23.208-25.423,47.809-49.456,73.427-72.427,11.79-10.57,24.29-20.351,36.5-30.455a23.515,23.515,0,0,1,3.914-2.535c2.318-1.237,3.514-.968,5.134,1.077a7.688,7.688,0,0,1,.912,8.766,54.067,54.067,0,0,1-5.935,9.239c-6.289,7.649-12.774,15.139-19.292,22.6-20.3,23.225-40.851,46.242-60.94,69.65-20.922,24.38-41.06,49.4-59.036,76.075-3.08,4.57-5.9,9.313-8.783,14.014a35.924,35.924,0,0,0-1.737,3.7q.454.314.909.624m14.268,94.1c6.665-8.892,15.192-16.5,19.2-27.266a101.453,101.453,0,0,0-19.2,27.266" transform="translate(0 0)" fill="#2a2828"/>
        </g>
        <g id="Group_584" data-name="Group 584" transform="translate(1378 -277)" clip-path="url(#clip-path-3)">
          <path id="Path_1614" data-name="Path 1614" d="M207.575,293.982c3.19-3.755,6.5-7.419,9.553-11.281,15.908-20.1,32.922-39.235,50.39-57.982,23.352-25.062,47.184-49.655,71.935-73.347,7.664-7.337,15.62-14.37,23.521-21.455a68.32,68.32,0,0,1,5.838-4.23c1.834-1.319,3.407-.875,4.9.628a10.766,10.766,0,0,1,3,9.73c-.182,1.223-.516,2.425-.905,4.2,1.274-.31,2.27-.294,2.925-.759,1.61-1.14,3.025-2.552,4.591-3.762a6.864,6.864,0,0,1,8.977.014c2.474,1.889,3.3,4.655,1.445,7.962a69.224,69.224,0,0,1-7.293,10.366c-6.347,7.6-12.932,15-19.386,22.513-1.195,1.392-2.168,2.971-3.328,4.4q-6.149,7.552-12.365,15.052c-5.159,6.2-10.558,12.207-15.51,18.564-14.429,18.525-28.692,37.177-42.993,55.8a9.95,9.95,0,0,0-2.071,4.684,13.375,13.375,0,0,0,2.091-1.56c10.17-11.215,20.357-22.411,30.446-33.7,14.712-16.459,29.263-33.061,44.069-49.435,3.776-4.176,8.225-7.747,12.418-11.538a10.771,10.771,0,0,1,2.855-1.809c2.044-.9,3.694-.223,4.278,1.965,1.234,4.628,1.654,9.311-1.553,13.381-3.058,3.881-6.294,7.632-9.578,11.329-11.758,13.235-22.721,27.1-33.112,41.418q-3.111,4.29-6.134,8.647a2.312,2.312,0,0,0-.167,2.253c1.909-1.771,3.908-3.456,5.712-5.328,10.708-11.1,21.283-22.335,32.09-33.342,4.353-4.434,9.073-8.533,13.83-12.54a40.582,40.582,0,0,1,8.125-5.345c4.268-2.1,7.87.383,7.329,5.191a18.24,18.24,0,0,1-2.874,7.831Q394.263,222,387.2,231.041c-8.709,11.149-17.642,22.122-26.452,33.189-.829,1.041-1.455,2.243-2.588,4.014,3,.315,5.208.641,7.422.747a3.681,3.681,0,0,1,3.823,3.243c.175.827.441,1.639.575,2.471a17.461,17.461,0,0,0,4.242,9.066c3.655,4.131,3.837,5.782.4,10-6.779,8.341-13.6,16.672-20.856,24.6-8.019,8.761-16.512,17.094-24.872,25.542a31.594,31.594,0,0,1-5.285,4.24c-5.18,3.355-9.185,1.885-11.132-3.936-.175-.526-.337-1.055-.563-1.761-2.583.143-4.206,1.77-5.653,3.413-6.26,7.114-12.423,14.312-18.62,21.48-4.254,4.923-8.407,9.937-12.806,14.725a25.643,25.643,0,0,1-5.979,4.695c-3.653,2.124-6.605.538-6.679-3.658a51.824,51.824,0,0,1,1.023-8.806,25.731,25.731,0,0,0,.721-5.8c-1.591,1.565-3.291,3.036-4.754,4.713-6.512,7.465-12.93,15.009-19.432,22.484-3.621,4.162-7.213,8.365-11.058,12.316a55.819,55.819,0,0,1-8.361,7.155c-3.606,2.464-5.993,1.45-7.483-2.646-.721-1.984-1.377-3.992-2.079-5.984-.032-.092-.213-.131-.6-.352a24.809,24.809,0,0,1-1.72,2.118c-1.683,1.69-3.2,3.68-5.188,4.9-4.244,2.61-8.949.1-9.08-4.885a21.1,21.1,0,0,1,1.388-7.858c2.8-7.392,5.6-14.821,9.006-21.945a382.081,382.081,0,0,1,38.857-64.6c13.575-18.11,26.652-36.59,39.976-54.887,3.33-4.574,6.779-9.061,10.14-13.611a20.816,20.816,0,0,0,1.32-2.35l-.662-.562a52.211,52.211,0,0,0-4.067,4c-14.736,17.916-29.735,35.629-44.035,53.887-11.77,15.028-22.879,30.584-33.924,46.158-6.211,8.756-11.673,18.042-17.526,27.055-2.925,4.5-5.738,9.112-9.049,13.323a37.649,37.649,0,0,1-7.506,6.736c-2.12,1.552-4.642,1.138-6.81-.277-2.224-1.451-2.438-3.779-1.923-6.061a29.77,29.77,0,0,1,2.324-7.23c4.591-8.76,9.4-17.4,14.137-26.087,2.3-4.22,4.659-8.411,6.893-12.666.813-1.55,1.341-3.25,2-4.88l-.938-.6a39.409,39.409,0,0,0-3.769,4.16c-14.1,20.7-27.55,41.8-39.388,63.887a34.759,34.759,0,0,1-4,5.972,5.649,5.649,0,0,1-6.9,1.722c-2.418-.972-3.509-2.192-3.342-4.79a21.591,21.591,0,0,1,1.3-6.609c3.42-8.516,6.806-17.065,10.674-25.384,7.684-16.536,15.608-32.961,23.562-49.371,13.927-28.734,31.1-55.476,50.242-81,5.772-7.694,11.678-15.289,17.439-22.99,1.9-2.542,3.9-5.081,5.05-8.642-2.307.368-3.042,2.045-4.041,3.163-12.449,13.924-24.571,28.149-37.286,41.824-20.475,22.018-38.523,45.966-56.832,69.721-9.153,11.875-18.431,23.657-27.448,35.632-3.565,4.734-6.544,9.906-9.852,14.836-1.652,2.46-3.342,4.909-5.2,7.211a5.957,5.957,0,0,1-6.524,1.95c-2.758-.693-4.057-1.882-3.91-4.695a21.257,21.257,0,0,1,1.528-7.812c4.749-10.1,9.735-20.082,14.8-30.026,3.655-7.174,7.589-14.208,11.349-21.329a6.238,6.238,0,0,0,.7-3.72,18.726,18.726,0,0,0-1.991,1.928c-6.764,8.714-13.453,17.485-20.25,26.172-4.62,5.9-9.348,11.715-14.1,17.506a16.81,16.81,0,0,1-3.459,3.107,5.272,5.272,0,0,1-7.017-.24c-1.979-1.564-2.5-3.2-1.518-6.064a54.979,54.979,0,0,1,2.843-6.614c7.448-14.97,16.492-29,25.581-43,13.711-21.111,27.009-42.513,41.379-63.172,19.219-27.633,39.309-54.664,58.99-81.981,2.559-3.553,4.936-7.24,7.322-10.916a26.82,26.82,0,0,0,1.557-3.818,16.135,16.135,0,0,0-2.969,1.555c-2.044,1.955-4.072,3.939-5.979,6.025-17.948,19.639-36.187,39.024-53.694,59.046-13.122,15.011-25.273,30.868-37.894,46.316-8.595,10.517-17.142,21.079-25.922,31.441a189.571,189.571,0,0,0-18.1,25.09,43.718,43.718,0,0,1-3.733,5.659,13.25,13.25,0,0,1-4.169,3.466c-3.732,1.805-7.963-.733-7.683-4.822a25.1,25.1,0,0,1,2.392-9.755c4.46-8.5,9.059-16.973,14.3-25.006,14.926-22.881,31.555-44.554,48.13-66.254q23.443-30.7,46.992-61.312c4.222-5.493,8.6-10.864,12.917-16.284.721-.905,1.55-1.761.111-3.124a8.08,8.08,0,0,0-1.855,1.222q-10.753,12.279-21.436,24.62c-13.093,15.049-26.293,30.009-39.25,45.173-8.176,9.568-16.413,19.132-23.883,29.243-13.951,18.879-27.342,38.171-41.016,57.254-3.7,5.168-7.49,10.281-11.431,15.268a8.861,8.861,0,0,1-8.207,3.556c-3.788-.388-5.384-2.312-4.232-6.01a36.829,36.829,0,0,1,3.669-8.527c7.181-11.518,14.426-23,21.919-34.317,15.479-23.378,32.927-45.306,50.169-67.385,5.566-7.126,10.7-14.591,16.017-21.909a1.671,1.671,0,0,0,.1-1.538,21.913,21.913,0,0,0-2.631,2.21q-21.976,25.041-43.878,50.145c-6.588,7.582-13.242,15.132-19.4,23.058-9.37,12.061-18.293,24.465-27.5,36.65a26.589,26.589,0,0,1-5.818,6.044c-3.99,2.733-7.888.871-8.942-3.859a13.374,13.374,0,0,1,1.3-9.068,83.241,83.241,0,0,1,6.52-11.385c7.543-10.429,15.392-20.635,23.068-30.968,8.013-10.788,15.918-21.654,23.953-32.423,5.835-7.82,11.9-15.469,17.7-23.318Q98.9,163.86,116.73,139.31a14.389,14.389,0,0,0,2.51-5.168,18.6,18.6,0,0,0-2.258,1.8C104.048,150,90.774,163.767,78.309,178.223c-19.4,22.5-38.229,45.493-57.37,68.219a94.89,94.89,0,0,1-8.833,9.137,11.152,11.152,0,0,1-5.22,2.523c-4.262.8-6.306-1.3-5.445-5.51a26.245,26.245,0,0,1,2.45-7.191c3.978-7.324,7.914-14.695,12.391-21.715A487.217,487.217,0,0,1,57.34,169.123c17.756-20.744,35.973-41.1,53.987-61.624q9.515-10.845,19-21.712a7.89,7.89,0,0,0,1.911-3.752c-2.3,1.984-4.695,3.864-6.881,5.964a1097.566,1097.566,0,0,0-75.342,80.61q-15,17.611-29.924,35.29c-2.369,2.809-4.451,5.858-6.822,8.666a22.415,22.415,0,0,1-4.337,4.005,5,5,0,0,1-5.969-.116C1.012,215.1-.509,213.324.161,210.767a23.787,23.787,0,0,1,2.311-5.874c3.335-5.744,6.709-11.477,10.335-17.041,14.606-22.4,29.747-44.44,46.565-65.268,9.243-11.448,18.79-22.651,28.151-34.006A38.721,38.721,0,0,0,93.323,80l-.694-.737a31.994,31.994,0,0,0-3.158,2.319C79.942,90.453,70.4,99.306,60.96,108.274c-8.618,8.188-17.092,16.529-25.673,24.758-1.717,1.645-3.624,3.092-5.646,4.8a44.865,44.865,0,0,1-3.76-3.121c-1.48-1.528-2.129-3.367-.994-5.406a54.6,54.6,0,0,1,4.281-7.278A138.271,138.271,0,0,1,38.88,110.8C60.807,88.268,83.922,66.985,107.756,46.49c12.658-10.885,25.685-21.343,38.646-31.872a79.8,79.8,0,0,1,8.875-5.792,11.826,11.826,0,0,1,3.532-1.39c2.5-.56,3.73.162,4.54,2.568a12.907,12.907,0,0,1-.613,9.124,34.369,34.369,0,0,1-4.264,7.763c-3.495,4.618-7.252,9.047-11.053,13.424C141.855,46.725,136.133,53,130.533,59.383c-1.29,1.468-2.358,3.131-3.529,4.7l.57.653c1.986-1.565,3.994-3.105,5.954-4.7,1.976-1.608,3.915-3.26,5.852-4.914,13.769-11.77,27.405-23.7,41.356-35.246,6.529-5.4,13.66-10.082,20.534-15.064a22.884,22.884,0,0,1,2.9-1.771c3.105-1.611,5.227-.98,6.444,2.2,1.965,5.142,1.4,9.986-2.353,14.234-1.5,1.691-3.1,3.294-4.553,5.016a3.135,3.135,0,0,0-.439,2.714,60.343,60.343,0,0,0,6.052-3.384c7.14-5.1,14.159-10.374,21.28-15.5,3.33-2.4,6.794-4.6,10.194-6.9,1.839-1.246,3.655-2.166,5.819-.56,2.455,1.819,3.612,4.242,2.9,6.946a12.452,12.452,0,0,1-1.639,3.874A104.833,104.833,0,0,1,240.1,22.255c-9.061,10.117-18.321,20.058-27.548,30.027q-25.8,27.887-51.641,55.745a60.813,60.813,0,0,0-6.192,8.091c1.807-.111,2.877-1.394,3.968-2.447Q171.371,101.44,183.945,89.1q31.774-31.271,63.516-62.577a54.839,54.839,0,0,1,7.718-6.628A25.947,25.947,0,0,1,263.2,16.26c3.769-.934,5.659.8,5.726,4.666a48.78,48.78,0,0,1-.5,5.471c-.09.938-.167,1.877-.3,3.444,1.761-.441,3.083-.71,4.368-1.1,5.348-1.637,9.84,2.377,8.385,7.759a18.625,18.625,0,0,1-3.1,5.949c-5.622,7.631-11.242,15.271-17.136,22.69-13.551,17.058-27.252,34-40.919,50.967-2.925,3.633-6.007,7.138-8.931,10.769a10.574,10.574,0,0,0-2.221,4.739c1.554-1.445,3.187-2.814,4.649-4.347,12.011-12.6,23.958-25.26,35.991-37.838q22.157-23.162,44.457-46.189a48.884,48.884,0,0,1,7.3-5.763A9.443,9.443,0,0,1,304.882,36c4.421-.641,7.3,2.243,6.272,6.585a29.073,29.073,0,0,1-3.332,8.2,150.98,150.98,0,0,1-9.871,14.815q-14.6,18.752-29.658,37.143c-16.512,20.146-31.979,41.077-47.16,62.221-11.385,15.857-22.59,31.84-33.844,47.788a7.925,7.925,0,0,0-1.535,4.353c1.087-1.024,2.238-1.989,3.252-3.082,10.689-11.511,21.208-23.182,32.061-34.537q35.641-37.29,71.573-74.3C302.887,94.617,313.35,84.254,323.912,74a142.957,142.957,0,0,1,13.025-10.83A12.659,12.659,0,0,1,342.4,61.1c2.408-.4,3.628.613,4.523,2.913a7.777,7.777,0,0,1-.7,7.315,41.546,41.546,0,0,1-4.623,6.046c-7.1,7.5-14.519,14.715-21.4,22.408a203.373,203.373,0,0,0-14.177,17.965,284.63,284.63,0,0,1-26.788,31.783c-20.745,21.673-41.714,43.133-62.6,64.675-12.612,13.01-24.921,26.31-36.34,40.37-5.785,7.123-10.83,14.846-16.163,22.331a8.06,8.06,0,0,0-1.371,3.8,23.622,23.622,0,0,0,2.673-2.219c8.92-9.864,17.759-19.8,26.709-29.639q25.138-27.634,50.37-55.185c23.208-25.423,47.809-49.456,73.427-72.427,11.79-10.57,24.29-20.351,36.5-30.455a23.515,23.515,0,0,1,3.914-2.535c2.318-1.237,3.514-.968,5.134,1.077a7.688,7.688,0,0,1,.912,8.766,54.067,54.067,0,0,1-5.935,9.239c-6.289,7.649-12.774,15.139-19.292,22.6-20.3,23.225-40.851,46.242-60.94,69.65-20.922,24.38-41.06,49.4-59.036,76.075-3.08,4.57-5.9,9.313-8.783,14.014a35.924,35.924,0,0,0-1.737,3.7q.454.314.909.624m14.268,94.1c6.665-8.892,15.192-16.5,19.2-27.266a101.453,101.453,0,0,0-19.2,27.266" transform="translate(0 0)" fill="#e8137f"/>
        </g>
      </g>
    </g>
  </g>
</svg>
