<svg xmlns="http://www.w3.org/2000/svg" xmlns:xlink="http://www.w3.org/1999/xlink" width="205.164" height="178.757" viewBox="0 0 205.164 178.757">
  <defs>
    <clipPath id="clip-path">
      <rect id="Rectangle_354" data-name="Rectangle 354" width="205.164" height="178.757" fill="#ffd92e"/>
    </clipPath>
  </defs>
  <g id="Group_629" data-name="Group 629" clip-path="url(#clip-path)">
    <path id="Path_1671" data-name="Path 1671" d="M17.611,54.5c-2.383,3.382-5.04,6.607-7.08,10.184-2.542,4.456-4.576,9.2-6.826,13.823-.111.228-.154.492-.282.707-.578.96-.756,2.636-2.448,1.955C-.7,80.5.216,79.207.544,78.083c5.251-17.99,16.748-31.245,31.6-42.049a116.927,116.927,0,0,0,9.161-8.042c10.424-9.4,22.631-15.652,35.76-20.26A123.622,123.622,0,0,1,104.577,1c1.891-.206,3.814-.1,5.721-.181C114.469.644,118.643.5,122.81.24,136.124-.6,149.14.626,161.455,6.13a65.516,65.516,0,0,1,34.88,35.624,112.443,112.443,0,0,1,8.579,51.482c-1.091,16.988-5.507,32.955-15.4,47.081-10.431,14.891-24.579,25.069-41.476,31.176-29.334,10.6-58.46,9.686-86.944-3.306-16.617-7.579-29.019-19.929-38.567-35.326-5.345-8.62-9.892-17.582-12.51-27.45C5.482,88.32,8.263,72.316,17,57.16q.57-.989,1.107-2c.043-.081-.032-.224-.053-.338l-.44-.321m90.651,122.018c13.205-.159,25.676-1.972,37.708-6.381C159.2,165.294,171,158.159,180.59,147.76c13.537-14.674,19.652-32.452,20.9-52.068a109.263,109.263,0,0,0-8.268-49.986c-7.929-18.859-21.4-31.571-40.877-37.823a75.88,75.88,0,0,0-26.01-3.176c-.931.032-1.843.554-2.776.6-1.118.056-2.277-.358-3.371-.213-4.472.592-8.993,1.028-13.374,2.043C81.008,13.113,57.058,23.326,35.594,39a74.067,74.067,0,0,0-9.887,8.578,48.088,48.088,0,0,0-5.654,8.13c-9,14.567-12.553,30.12-8.458,47.07,2.478,10.256,7.1,19.534,12.638,28.413,7.293,11.7,16.226,21.845,27.915,29.37,17.226,11.09,36.3,15.62,56.113,15.961M45.043,26.949A238.838,238.838,0,0,1,105.822,2.28C83.461,5.346,62.805,12.635,45.043,26.949" transform="translate(0 0)" fill="#ffd92e"/>
  </g>
</svg>
