<svg xmlns="http://www.w3.org/2000/svg" xmlns:xlink="http://www.w3.org/1999/xlink" width="99.335" height="4.3" viewBox="0 0 99.335 4.3">
  <defs>
    <clipPath id="clip-path">
      <rect id="Rectangle_313" data-name="Rectangle 313" width="99.335" height="4.3" transform="translate(0 0)" fill="#ffd92e"/>
    </clipPath>
  </defs>
  <g id="Group_586" data-name="Group 586" transform="translate(0 0)">
    <g id="Group_551" data-name="Group 551" transform="translate(0 0)" clip-path="url(#clip-path)">
      <path id="Path_1589" data-name="Path 1589" d="M5.631.958a1.4,1.4,0,0,1,2.252.093c.191.192.712.15,1.054.08C9.879.938,10.8.657,11.743.448A3.992,3.992,0,0,1,12.871.366c.549.038,1.019.2.5,1.131L19.286.221c-.208.892.117,1.2.754,1.183.844-.023,1.687-.121,2.531-.121a4.046,4.046,0,0,1,1.128.254,4.393,4.393,0,0,0,1.306.431c1.045-.057,2.081-.269,3.123-.407a1.6,1.6,0,0,1,.769-.014c1.182.5,2.283.02,3.416-.2.684-.131,1.449-.553,1.975.4.1.175.6.216.891.176,1.041-.143,2.068-.4,3.111-.513.668-.073,1.576-.544,1.795.7.019.11.475.25.687.2.61-.144,1.188-.43,1.8-.56a9.653,9.653,0,0,1,1.655-.125c.736-.026,1.48.032,2.208-.053.87-.1,1.721-.364,2.59-.468s1.382.172.787,1.2a4.665,4.665,0,0,0,3.541-.485,2.029,2.029,0,0,1,2.007.141A1.232,1.232,0,0,0,56.53,2.1c.36-.122.737-.2,1.082-.355.42-.187.815-.431,1.221-.65L58.78.751c.679.332,1.352.678,2.042.987a1.3,1.3,0,0,0,.718.126c.717-.135,1.426-.318,2.13-.51a.577.577,0,0,0,.375-.3c.2-.8.56-.62,1.051-.241A3.923,3.923,0,0,0,69.37.559a.8.8,0,0,1,.741.063c1.331,1.057,2.707.63,4.105.211A1.973,1.973,0,0,1,75.369.7C77,1.364,78.5.639,79.974.233c1.1-.3,1.385-.436,1.664.414l.294-.44.516.864c.694-.153,1.68.336,2.271-.823a3.812,3.812,0,0,0,3.22.659c.266-.055.511-.206.774-.282.174-.05.453-.133.533-.052.649.666,1.424.358,2.158.317.861-.048,1.718-.151,2.579-.2C95.3.618,96.61.532,97.924.535a5.464,5.464,0,0,1,1.411.4,2.076,2.076,0,0,1-2.684,1.018,2.831,2.831,0,0,0-2.751.373,1.084,1.084,0,0,1-.907.194,2.939,2.939,0,0,0-2.268.318,1.5,1.5,0,0,1-1.772-.279,1.181,1.181,0,0,0-.907-.166c-.717.122-1.414.36-2.13.491a1.071,1.071,0,0,1-.815-.137,1.77,1.77,0,0,0-1.8-.28c-.4.087-.793.211-1.2.275-1.311.209-1.656.018-2.167-1.249-1.03.357-2.074.7-3.1,1.082a1.7,1.7,0,0,1-2.022-.267.885.885,0,0,0-.71-.089c-1.047.262-2.074.612-3.129.833a3.748,3.748,0,0,1-1.314-.14,4.651,4.651,0,0,0-1.163-.24c-.78.086-1.541.383-2.32.429a10.244,10.244,0,0,1-1.89-.261,1.693,1.693,0,0,0-.674.007c-1.063.311-2.112.666-3.176.974a1.509,1.509,0,0,1-1.832-.4c-.1-.132-.484-.135-.7-.073-.87.251-1.723.556-2.586.831-.629.2-1.2.216-1.6-.464a.67.67,0,0,0-.573-.2c-.945.178-1.883.4-2.821.613-1.636.376-2.055.19-2.744-1.305-.488.1-1,.188-1.506.3a6.426,6.426,0,0,1-3.342.338c-.425-.124-.965.153-1.454.234-.69.114-1.379.246-2.074.316-.629.063-1.214-.018-1.155-1.073-1.2.254-2.282.438-3.339.723-.808.217-1.536.4-2.11-.446-.078-.114-.355-.145-.532-.129A13.779,13.779,0,0,0,30.6,3.3c-2.223.443-4.538.034-6.738.765a1.14,1.14,0,0,1-1.491-.592c-.073-.15-.5-.188-.758-.177-.846.034-1.689.149-2.535.166-.7.015-1.372-.107-1.344-1.219-.774.224-1.451.454-2.143.613a19.793,19.793,0,0,1-2.747.508,3.94,3.94,0,0,1-1.34-.393l.044-.3c-1.163.273-2.327.538-3.487.821-.676.165-1.33.347-1.723-.5-.051-.11-.338-.163-.512-.156-.583.021-1.166.062-1.745.132-.787.1-1.485.054-1.682-.885L.162,2.7,0,2.416A4.806,4.806,0,0,1,.674,1.75a3.6,3.6,0,0,1,3.654-.574l-.608.389a7.625,7.625,0,0,0,2.033-.324C6.335,1.092,6.88.99,7.3,1.62c.107.161.439.171.794.295L7.186.649,5.631.958" transform="translate(0 0)" fill="#ffd92e"/>
    </g>
  </g>
</svg>
